<?xml version="1.0" encoding="UTF-8"?>
<!DOCTYPE svg PUBLIC "-//W3C//DTD SVG 1.1//EN" "http://www.w3.org/Graphics/SVG/1.1/DTD/svg11.dtd">
<svg version="1.1" xmlns="http://www.w3.org/2000/svg" xmlns:xlink="http://www.w3.org/1999/xlink" x="0" y="0" width="100" height="100" viewBox="0, 0, 100, 100">
  <g id="Background">
    <rect x="0" y="0" width="100" height="100" fill-opacity="0" fill="#FFFFFF"/>
  </g>
  <g id="close">
    <title>close window</title>
    <path d="M93.489,48.105 C82.471,33.142 66.104,24.561 48.583,24.561 C31.839,24.561 15.942,32.524 4.969,46.409 L3.39,48.407 L4.9,50.457 C15.919,65.42 32.286,74 49.806,74 C66.55,74 82.447,66.037 93.42,52.153 L95,50.155 L93.489,48.105 z M49.84,66.385 C40.587,66.385 33.059,58.857 33.059,49.605 C33.059,47.937 33.307,46.328 33.762,44.807 L29.916,43.691 C29.358,45.567 29.054,47.55 29.054,49.605 C29.054,55.87 31.852,61.483 36.251,65.296 C26.924,62.454 18.462,56.702 11.862,48.551 C18.625,40.776 27.201,35.371 36.529,32.851 L36.876,33.375 L39.327,36.539 C42.206,34.217 45.863,32.823 49.842,32.823 C59.095,32.823 66.622,40.351 66.622,49.605 C66.62,58.857 59.093,66.385 49.84,66.385 z M63.508,65.225 C67.86,61.412 70.625,55.831 70.625,49.605 C70.625,43.152 67.669,37.377 63.041,33.562 C72.01,36.495 80.142,42.123 86.528,50.01 C80.166,57.324 72.197,62.533 63.508,65.225 z" fill="#FF0000"/>
    <path d="M36.21,65 L63,33.266" fill-opacity="0" stroke="#FF0000" stroke-width="7"/>
    <path d="M65.472,62.528 L33.738,35.738" fill-opacity="0" stroke="#FF0000" stroke-width="7"/>
  </g>
</svg>
