<?xml version="1.0" encoding="UTF-8"?>
<!DOCTYPE svg PUBLIC "-//W3C//DTD SVG 1.1//EN" "http://www.w3.org/Graphics/SVG/1.1/DTD/svg11.dtd">
<svg version="1.1" xmlns="http://www.w3.org/2000/svg" xmlns:xlink="http://www.w3.org/1999/xlink" x="0" y="0" width="100" height="100" viewBox="0, 0, 100, 100">
  <g id="Layer_1">
    <title>Hidden Industries - email</title>
    <path d="M92.474,41.819 L84.449,35.465 L84.449,3.348 C84.449,1.502 82.948,-0 81.102,-0 L18.898,-0 C17.052,-0 15.551,1.502 15.551,3.348 L15.551,35.465 L7.526,41.819 C7.138,42.126 6.911,42.594 6.911,43.089 L6.911,94.924 C6.911,97.723 9.188,100 11.987,100 L88.013,100 C90.812,100 93.089,97.723 93.089,94.924 L93.089,43.089 C93.089,42.594 92.862,42.126 92.474,41.819 z M89.849,94.924 C89.849,94.959 89.846,94.993 89.844,95.028 L59.157,70.734 L89.849,46.437 L89.849,94.924 z M10.151,94.924 L10.151,46.437 L40.843,70.734 L10.156,95.028 C10.154,94.993 10.151,94.959 10.151,94.924 z M56.502,68.705 C52.674,71.735 47.326,71.735 43.498,68.705 L37.195,63.715 L62.805,63.715 L56.502,68.705 z M43.499,72.763 C43.548,72.724 43.599,72.687 43.649,72.649 C45.639,73.695 47.819,74.221 50,74.221 C52.18,74.221 54.36,73.695 56.35,72.649 C56.401,72.687 56.452,72.724 56.502,72.764 L86.813,96.76 L13.187,96.76 L43.499,72.763 z M88.859,43.089 L84.449,46.579 L84.449,39.597 L88.859,43.089 z M18.898,3.24 L81.102,3.24 C81.161,3.24 81.21,3.288 81.21,3.348 L81.21,49.144 L66.897,60.475 L33.103,60.475 L18.79,49.144 L18.79,36.284 C18.79,36.28 18.79,36.276 18.79,36.272 L18.79,3.348 C18.79,3.288 18.839,3.24 18.898,3.24 z M15.551,46.579 L11.141,43.089 L15.551,39.597 L15.551,46.579 z" fill="#000000"/>
    <path d="M67.983,13.739 C63.261,9.036 57.211,6.651 50,6.651 C43.005,6.651 37.063,9.094 32.341,13.912 C27.722,18.634 25.379,24.402 25.379,31.058 C25.379,37.726 27.627,43.529 32.06,48.304 C36.744,53.371 42.779,55.94 50,55.94 C50.338,55.94 50.675,55.937 51.012,55.932 L51.012,51.078 C50.675,51.085 50.338,51.09 50,51.09 C44.314,51.09 39.576,49.015 35.919,44.926 C32.501,41.075 30.768,36.409 30.768,31.058 C30.768,25.662 32.605,21.041 36.23,17.321 C39.91,13.533 44.543,11.612 50,11.612 C55.721,11.612 60.477,13.442 64.139,17.052 C67.578,20.437 69.322,24.586 69.322,29.384 C69.322,34.638 67.611,38.725 67.086,39.853 L60.672,39.856 L60.672,18.284 L54.745,18.284 L54.745,20.957 C54,20.389 53.101,19.898 52.062,19.493 C50.625,18.95 49.216,18.674 47.875,18.674 C44.298,18.674 41.297,20.086 38.956,22.872 C36.8,25.442 35.706,28.506 35.706,31.979 C35.706,35.205 36.735,38.151 38.763,40.734 C41.084,43.715 44.149,45.236 47.871,45.255 L47.949,45.256 C50.94,45.256 53.531,44.224 55.655,42.191 L56.501,44.651 L70.695,44.651 L72.284,41.39 C73.835,38.29 74.621,34.251 74.621,29.384 C74.621,23.392 72.388,18.129 67.983,13.739 z M52.573,37.408 C51.301,38.937 49.823,39.68 48.053,39.68 C45.717,39.68 43.914,38.747 42.542,36.829 C41.441,35.283 40.884,33.595 40.884,31.811 C40.884,29.822 41.523,28.043 42.784,26.522 C44.197,24.824 45.95,23.998 48.143,23.998 C49.499,23.998 50.836,24.603 52.115,25.794 C53.723,27.292 54.504,29.27 54.504,31.84 C54.504,33.994 53.854,35.868 52.573,37.408 z" fill="#000000"/>
  </g>
</svg>
