<?xml version="1.0" encoding="UTF-8"?>
<!DOCTYPE svg PUBLIC "-//W3C//DTD SVG 1.1//EN" "http://www.w3.org/Graphics/SVG/1.1/DTD/svg11.dtd">
<svg version="1.1" xmlns="http://www.w3.org/2000/svg" xmlns:xlink="http://www.w3.org/1999/xlink" x="0" y="0" width="481.89" height="141.732" viewBox="0, 0, 481.89, 141.732">
<title>Hidden Industries logotype</title>
  <g id="logotype_white">
    <path d="M102.044,54.075 L102.044,78.555 L108.308,78.555 L108.308,25.995 L102.044,25.995 L102.044,48.747 L73.316,48.747 L73.316,25.995 L67.124,25.995 L67.124,78.555 L73.316,78.555 L73.316,54.075 z" fill="#FFFFFF"/>
    <path d="M124.94,25.995 L119.036,25.995 L119.036,32.907 L124.94,32.907 z M124.94,39.963 L119.036,39.963 L119.036,141.889 L124.94,141.889 z" fill="#FFFFFF"/>
    <path d="M149.348,74.163 C157.268,74.163 160.94,67.467 160.94,59.187 C160.94,50.907 157.484,44.211 149.276,44.211 C141.428,44.211 138.548,51.987 138.548,58.971 C138.548,66.603 141.356,74.163 149.348,74.163 z M148.988,79.419 C138.548,79.419 132.5,70.851 132.5,58.827 C132.5,47.883 138.98,39.027 148.772,39.027 C153.884,39.027 158.924,41.475 160.94,45.579 L160.94,26.139 L166.844,25.491 L166.844,78.555 L161.588,78.555 L160.868,72.507 C158.636,76.467 154.316,79.419 148.988,79.419 z" fill="#FFFFFF"/>
    <path d="M189.956,74.163 C197.876,74.163 201.548,67.467 201.548,59.187 C201.548,50.907 198.092,44.211 189.884,44.211 C182.036,44.211 179.156,51.987 179.156,58.971 C179.156,66.603 181.964,74.163 189.956,74.163 z M189.596,79.419 C179.156,79.419 173.108,70.851 173.108,58.827 C173.108,47.883 179.588,39.027 189.38,39.027 C194.492,39.027 199.532,41.475 201.548,45.579 L201.548,26.139 L207.452,25.491 L207.452,78.555 L202.196,78.555 L201.476,72.507 C199.244,76.467 194.924,79.419 189.596,79.419 z" fill="#FFFFFF"/>
    <path d="M232.004,79.419 C220.988,79.419 214.292,71.571 214.292,59.187 C214.292,47.667 221.204,39.315 231.284,39.027 C240.86,39.027 246.836,46.299 246.836,57.675 C246.836,58.251 246.764,59.691 246.764,60.339 L220.34,60.339 C220.34,69.051 225.452,74.379 232.22,74.379 C237.692,74.379 241.724,72.363 244.46,70.491 L246.26,74.811 C243.092,77.547 238.196,79.419 232.004,79.419 z M220.556,56.235 L241.148,56.235 C241.148,48.027 237.044,43.851 231.284,43.851 C225.452,43.851 221.204,48.675 220.556,56.235 z" fill="#FFFFFF"/>
    <path d="M272.9,39.027 C267.572,39.027 262.172,41.547 259.148,45.651 L258.644,39.963 L253.532,39.963 L253.676,49.323 L253.676,78.555 L259.58,78.555 L259.58,52.203 C260.516,48.747 265.124,44.067 271.604,44.067 C278.732,44.067 279.164,49.179 279.164,59.187 L279.164,78.555 L285.068,78.555 L285.068,55.443 C285.068,44.643 281.396,39.027 272.9,39.027 z" fill="#FFFFFF"/>
    <path d="M154.63,102.34 C149.302,102.34 143.902,104.86 140.878,108.964 L140.374,103.276 L135.262,103.276 L135.406,112.636 L135.406,141.868 L141.31,141.868 L141.31,115.516 C142.246,112.06 146.854,107.38 153.334,107.38 C160.462,107.38 160.894,112.492 160.894,122.5 L160.894,141.868 L166.798,141.868 L166.798,118.756 C166.798,107.956 163.126,102.34 154.63,102.34 z" fill="#FFFFFF"/>
    <path d="M189.982,137.476 C197.902,137.476 201.574,130.78 201.574,122.5 C201.574,114.22 198.118,107.524 189.91,107.524 C182.062,107.524 179.182,115.3 179.182,122.284 C179.182,129.916 181.99,137.476 189.982,137.476 z M189.622,142.732 C179.182,142.732 173.134,134.164 173.134,122.14 C173.134,111.196 179.614,102.34 189.406,102.34 C194.518,102.34 199.558,104.788 201.574,108.892 L201.574,89.452 L207.478,88.804 L207.478,141.868 L202.222,141.868 L201.502,135.82 C199.27,139.78 194.95,142.732 189.622,142.732 z" fill="#FFFFFF"/>
    <path d="M215.398,128.98 C215.398,139.06 222.814,142.732 230.95,142.732 C239.086,142.732 246.358,139.132 246.358,128.98 L246.358,103.276 L240.454,103.276 L240.454,129.052 C240.454,135.892 236.422,137.908 230.95,137.908 C225.406,137.908 221.302,135.964 221.302,129.052 L221.302,103.276 L215.398,103.276 z" fill="#FFFFFF"/>
    <path d="M280.198,131.5 C279.982,138.772 274.798,142.732 267.454,142.732 C261.55,142.732 256.366,140.86 254.062,139.132 L255.574,134.596 C257.014,135.532 261.262,137.836 266.518,137.836 L267.094,137.836 C271.486,137.836 274.294,135.676 274.654,131.644 L274.654,131.284 C274.654,128.836 273.142,126.532 268.822,125.308 L263.71,123.868 C256.006,121.708 253.774,117.892 253.702,113.212 C253.702,107.812 257.95,102.412 266.59,102.34 C271.558,102.34 275.302,103.348 278.254,104.86 L276.886,109.108 C274.798,108.244 271.27,107.02 267.022,107.02 C262.774,107.02 259.606,109.252 259.606,113.212 C259.606,115.588 260.974,117.46 265.15,118.54 L270.478,119.98 C276.742,121.636 280.198,124.948 280.198,131.356 z" fill="#FFFFFF"/>
    <path d="M295.678,107.38 L305.902,107.38 L305.902,103.276 L295.678,103.276 L295.678,90.46 L291.286,90.82 L289.774,103.276 L284.374,103.276 L283.87,107.38 L289.774,107.38 L289.774,126.244 C289.774,137.98 290.494,142.588 299.854,142.588 C301.078,142.588 302.158,142.444 306.55,142.084 L306.046,137.332 C303.31,137.548 301.87,137.692 301.222,137.692 C296.542,137.692 295.678,136.18 295.678,128.98 z" fill="#FFFFFF"/>
    <path d="M311.662,141.868 L311.662,112.132 C311.662,109.108 311.59,106.228 311.59,103.276 L316.558,103.276 L316.99,109.972 C319.726,105.004 323.758,103.276 328.294,103.276 L329.374,103.276 L329.806,108.676 L328.366,108.676 C321.166,108.676 317.566,113.5 317.566,119.26 L317.566,141.868 z" fill="#FFFFFF"/>
    <path d="M341.83,89.308 L335.926,89.308 L335.926,96.22 L341.83,96.22 z M341.83,103.276 L335.926,103.276 L335.926,141.868 L341.83,141.868 z" fill="#FFFFFF"/>
    <path d="M367.102,142.732 C356.086,142.732 349.39,134.884 349.39,122.5 C349.39,110.98 356.302,102.628 366.382,102.34 C375.958,102.34 381.934,109.612 381.934,120.988 C381.934,121.564 381.862,123.004 381.862,123.652 L355.438,123.652 C355.438,132.364 360.55,137.692 367.318,137.692 C372.79,137.692 376.822,135.676 379.558,133.804 L381.358,138.124 C378.19,140.86 373.294,142.732 367.102,142.732 z M355.654,119.548 L376.246,119.548 C376.246,111.34 372.142,107.164 366.382,107.164 C360.55,107.164 356.302,111.988 355.654,119.548 z" fill="#FFFFFF"/>
    <path d="M414.766,131.5 C414.55,138.772 409.366,142.732 402.022,142.732 C396.118,142.732 390.934,140.86 388.63,139.132 L390.142,134.596 C391.582,135.532 395.83,137.836 401.086,137.836 L401.662,137.836 C406.054,137.836 408.862,135.676 409.222,131.644 L409.222,131.284 C409.222,128.836 407.71,126.532 403.39,125.308 L398.278,123.868 C390.574,121.708 388.342,117.892 388.27,113.212 C388.27,107.812 392.518,102.412 401.158,102.34 C406.126,102.34 409.87,103.348 412.822,104.86 L411.454,109.108 C409.366,108.244 405.838,107.02 401.59,107.02 C397.342,107.02 394.174,109.252 394.174,113.212 C394.174,115.588 395.542,117.46 399.718,118.54 L405.046,119.98 C411.31,121.636 414.766,124.948 414.766,131.356 z" fill="#FFFFFF"/>
  </g>
  <g id="logo_white">
    <path fill-opacity="0.6" d="M378.417,5.45 C404.325,5.45 428.527,18.139 444.82,40.264 L447.054,43.296 L444.718,46.25 C428.492,66.781 404.985,78.555 380.226,78.555 C354.319,78.555 330.117,65.868 313.823,43.742 L311.59,40.711 L313.925,37.757 C330.151,17.225 353.658,5.45 378.417,5.45 z M378.383,60.236 C373.61,58.908 375.624,59.641 372.262,58.258 L372.264,58.258 L372.262,58.257 L367.824,63.868 C371.49,66.362 375.956,67.076 380.276,67.295 C393.958,67.295 405.088,56.163 405.091,42.482 C405,36.138 402.705,29.993 398.191,25.479 L394.041,30.725 C397.133,33.845 398.295,38.234 398.51,42.482 C398.51,52.353 390.508,60.354 380.638,60.354 L378.383,60.236 z M383.213,24.799 C388.911,26.528 386.615,25.436 390.327,27.556 L394.463,22.266 C390.374,19.048 385.364,17.924 380.279,17.667 C374.395,17.667 368.987,19.728 364.73,23.162 L361.106,18.483 L360.593,17.708 C346.799,21.435 334.118,29.427 324.117,40.924 C333.877,52.977 346.39,61.482 360.182,65.685 C353.677,60.047 349.539,51.747 349.539,42.482 C349.539,39.444 349.989,36.511 350.814,33.737 L356.501,35.388 C355.828,37.637 355.462,40.016 355.462,42.482 C355.819,51.019 358.156,55.277 364.046,61.167 L368.486,55.489 L368.485,55.488 L368.485,55.489 C364.674,52.117 363.016,47.456 362.765,42.482 C362.765,40.723 363.024,39.022 363.498,37.416 L363.499,37.419 L363.5,37.416 L379.084,41.934 L379.177,41.815 L369.115,28.825 C372.226,26.197 376.245,24.609 380.638,24.609 L383.213,24.799 z M399.796,18.76 C406.64,24.401 411.011,32.94 411.011,42.482 C411.011,51.689 406.922,59.942 400.487,65.58 C413.335,61.599 425.119,53.897 434.526,43.081 C425.084,31.419 413.059,23.097 399.796,18.76 z" fill="#FFFFFF"/>
    <path fill-opacity="0.6" d="M406.903,58.608" fill="#FFFFFF"/>
    <path fill-opacity="0.6" d="M400.844,57.644 L397.649,56.292" fill="#FFFFFF"/>
    <path fill-opacity="0.6" d="M396.951,55.869 L396.95,55.868" fill="#FFFFFF"/>
    <path fill-opacity="0.6" d="M390.044,49.077 L389.683,48.542" fill="#FFFFFF"/>
    <path fill-opacity="0.6" d="M388.935,46.968 L388.032,44.833" fill="#FFFFFF"/>
    <path fill-opacity="0.6" d="M387.541,34.469 L387.898,33.102" fill="#FFFFFF"/>
    <path fill-opacity="0.6" d="M425.903,33.168 L426.014,33.708" fill="#FFFFFF"/>
    <path fill-opacity="0.6" d="M424.466,29.624 L424.916,30.686" fill="#FFFFFF"/>
    <path fill-opacity="0.6" d="M422.493,26.591 L422.504,26.608" fill="#FFFFFF"/>
    <path fill-opacity="0.6" d="M421.223,25.182 L421.25,25.209" fill="#FFFFFF"/>
    <path fill-opacity="0.6" d="M394.475,23.327 L394.474,23.329" fill="#FFFFFF"/>
    <path fill-opacity="0.6" d="M416.761,21.612 L418.243,22.614" fill="#FFFFFF"/>
    <path fill-opacity="0.6" d="M413.738,20.229 L415.437,20.948" fill="#FFFFFF"/>
    <path fill-opacity="0.6" d="M409.852,19.227 L410.083,19.275" fill="#FFFFFF"/>
    <path fill-opacity="0.6" d="M406.904,18.936 L406.908,18.936" fill="#FFFFFF"/>
  </g>
</svg>
