<?xml version="1.0" encoding="UTF-8"?>
<!DOCTYPE svg PUBLIC "-//W3C//DTD SVG 1.1//EN" "http://www.w3.org/Graphics/SVG/1.1/DTD/svg11.dtd">
<svg version="1.1" xmlns="http://www.w3.org/2000/svg" xmlns:xlink="http://www.w3.org/1999/xlink" x="0" y="0" width="481.89" height="141.732" viewBox="0, 0, 481.89, 141.732">
  <g id="logo_line">
    <title>Hidden Industries - logotype</title>
    <g>
      <path d="M426.683,36.852 C432.466,36.852 437.155,32.164 437.155,26.381 C437.155,20.597 432.466,15.909 426.683,15.909 C424.109,15.909 421.754,16.839 419.932,18.379 L425.913,26.1 L416.642,23.412 C416.364,24.353 416.212,25.35 416.212,26.381 C416.211,32.164 420.901,36.852 426.683,36.852 z" fill-opacity="0" stroke="#FFFFFF" stroke-width="0.5" stroke-dasharray="3,1,1,1"/>
      <path d="M464.288,25.081 C454.742,12.117 440.562,4.683 425.382,4.683 C410.875,4.683 397.102,11.582 387.595,23.612 L386.227,25.343 L387.535,27.119 C397.082,40.083 411.262,47.516 426.442,47.516 C440.949,47.516 454.722,40.617 464.229,28.588 L465.597,26.857 L464.288,25.081 z M426.471,40.919 C418.454,40.919 411.932,34.397 411.932,26.381 C411.932,24.936 412.147,23.542 412.541,22.224 L409.209,21.257 C408.726,22.882 408.462,24.6 408.462,26.381 C408.462,31.809 410.886,36.672 414.698,39.975 C406.617,37.513 399.285,32.529 393.567,25.468 C399.427,18.731 406.857,14.048 414.938,11.865 L415.239,12.319 L417.363,15.06 C419.857,13.049 423.025,11.841 426.473,11.841 C434.49,11.841 441.011,18.363 441.011,26.381 C441.009,34.397 434.488,40.919 426.471,40.919 z M438.313,39.914 C442.083,36.61 444.479,31.775 444.479,26.381 C444.479,20.79 441.918,15.786 437.908,12.481 C445.679,15.022 452.725,19.898 458.257,26.732 C452.745,33.068 445.841,37.581 438.313,39.914 z" fill-opacity="0" stroke="#FFFFFF" stroke-width="0.5" stroke-dasharray="3,1,1,1"/>
      <path d="M414.698,39.975 L437.908,12.481" fill-opacity="0" stroke="#FFFFFF" stroke-width="0.5" stroke-dasharray="3,1,1,1"/>
    </g>
  </g>
  <g id="background_art">
    <path d="M381.822,82.155 C359.922,82.155 342.169,64.402 342.169,42.503 C342.169,20.603 359.922,2.85 381.822,2.85 C403.722,2.85 421.475,20.603 421.475,42.503 C421.475,64.402 403.722,82.155 381.822,82.155 z" fill-opacity="0" stroke="#FFFFFF" stroke-width="0.5" stroke-dasharray="3,1,1,1"/>
    <path d="M133,33.124 L21.251,143.982" fill-opacity="0" stroke="#FFFFFF" stroke-width="0.5" stroke-dasharray="3,1,1,1"/>
    <path d="M384.067,99.986 L473.5,11.541" fill-opacity="0" stroke="#FFFFFF" stroke-width="0.5" stroke-dasharray="3,1,1,1"/>
    <path d="M372.274,140.486 L461.707,52.042" fill-opacity="0" stroke="#FFFFFF" stroke-width="0.5" stroke-dasharray="3,1,1,1"/>
    <path d="M44.228,142.922 L108.808,79.055" fill-opacity="0" stroke="#FFFFFF" stroke-width="0.5" stroke-dasharray="3,1,1,1"/>
    <path d="M17.047,1.142 L17.047,139.157" fill-opacity="0" stroke="#FFFFFF" stroke-width="0.5" stroke-dasharray="3,1,1,1"/>
    <path d="M7.457,3.85 L473.5,4.142" fill-opacity="0" stroke="#FFFFFF" stroke-width="0.5" stroke-dasharray="3,1,1,1"/>
    <path d="M285.568,16.733 L285.568,145.715" fill-opacity="0" stroke="#FFFFFF" stroke-width="0.5" stroke-dasharray="3,1,1,1"/>
    <g>
      <path d="M135.404,85.131 L158.57,72.221 Q159.131,71.915 159.412,71.915 Q159.845,71.915 160.164,72.234 Q160.483,72.553 160.483,72.987 Q160.483,73.625 159.616,74.109 L139.767,85.131 L159.59,96.152 Q160.458,96.637 160.458,97.275 Q160.458,97.709 160.139,98.028 Q159.82,98.347 159.386,98.347 Q159.105,98.347 158.544,98.04 z" fill-opacity="0" stroke="#FFFFFF" stroke-width="0.5" stroke-dasharray="3,1,1,1"/>
      <path d="M188.879,80.079 L188.879,79.365 Q188.879,78.574 189.185,78.242 Q189.491,77.911 189.95,77.911 Q190.435,77.911 190.741,78.242 Q191.047,78.574 191.047,79.365 L191.047,84.212 Q191.022,85.003 190.729,85.335 Q190.435,85.667 189.95,85.667 Q189.517,85.667 189.223,85.373 Q188.93,85.08 188.879,84.391 Q188.726,82.58 186.493,80.947 Q184.261,79.314 180.485,79.314 Q175.714,79.314 173.24,82.299 Q170.765,85.284 170.765,89.136 Q170.765,93.295 173.495,95.999 Q176.225,98.704 180.562,98.704 Q183.062,98.704 185.652,97.785 Q188.241,96.867 190.333,94.826 Q190.869,94.315 191.277,94.315 Q191.711,94.315 192.004,94.609 Q192.298,94.902 192.298,95.336 Q192.298,96.433 189.721,98.117 Q185.562,100.847 180.46,100.847 Q175.281,100.847 171.951,97.543 Q168.622,94.239 168.622,89.162 Q168.622,83.983 172.028,80.564 Q175.434,77.145 180.613,77.145 Q185.537,77.145 188.879,80.079 z" fill-opacity="0" stroke="#FFFFFF" stroke-width="0.5" stroke-dasharray="3,1,1,1"/>
      <path d="M223.27,89.009 Q223.27,93.907 219.762,97.377 Q216.254,100.847 211.305,100.847 Q206.304,100.847 202.809,97.364 Q199.314,93.882 199.314,89.009 Q199.314,84.11 202.809,80.628 Q206.304,77.145 211.305,77.145 Q216.254,77.145 219.762,80.615 Q223.27,84.085 223.27,89.009 z M221.102,89.009 Q221.102,84.978 218.231,82.146 Q215.361,79.314 211.279,79.314 Q207.197,79.314 204.327,82.159 Q201.457,85.003 201.457,89.009 Q201.457,92.989 204.327,95.846 Q207.197,98.704 211.279,98.704 Q215.361,98.704 218.231,95.859 Q221.102,93.014 221.102,89.009 z" fill-opacity="0" stroke="#FFFFFF" stroke-width="0.5" stroke-dasharray="3,1,1,1"/>
      <path d="M253.146,67.986 L253.146,97.862 L256.003,97.862 Q256.794,97.862 257.126,98.155 Q257.457,98.449 257.457,98.933 Q257.457,99.393 257.126,99.699 Q256.794,100.005 256.003,100.005 L250.977,100.005 L250.977,95.744 Q247.252,100.847 241.512,100.847 Q238.603,100.847 235.937,99.303 Q233.271,97.76 231.728,94.902 Q230.184,92.045 230.184,89.009 Q230.184,85.947 231.728,83.103 Q233.271,80.258 235.937,78.702 Q238.603,77.145 241.537,77.145 Q247.15,77.145 250.977,82.248 L250.977,70.155 L248.12,70.155 Q247.329,70.155 246.997,69.849 Q246.665,69.543 246.665,69.058 Q246.665,68.599 246.997,68.292 Q247.329,67.986 248.12,67.986 z M250.977,89.009 Q250.977,84.927 248.222,82.12 Q245.466,79.314 241.665,79.314 Q237.838,79.314 235.083,82.12 Q232.327,84.927 232.327,89.009 Q232.327,93.065 235.083,95.885 Q237.838,98.704 241.665,98.704 Q245.466,98.704 248.222,95.885 Q250.977,93.065 250.977,89.009 z" fill-opacity="0" stroke="#FFFFFF" stroke-width="0.5" stroke-dasharray="3,1,1,1"/>
      <path d="M285.598,89.468 L263.759,89.468 Q264.32,93.627 267.241,96.165 Q270.163,98.704 274.474,98.704 Q276.872,98.704 279.5,97.913 Q282.128,97.122 283.786,95.821 Q284.271,95.438 284.628,95.438 Q285.036,95.438 285.343,95.757 Q285.649,96.076 285.649,96.51 Q285.649,96.943 285.241,97.352 Q284.016,98.627 280.891,99.737 Q277.765,100.847 274.474,100.847 Q268.963,100.847 265.277,97.237 Q261.59,93.627 261.59,88.499 Q261.59,83.83 265.047,80.488 Q268.504,77.145 273.607,77.145 Q278.862,77.145 282.256,80.577 Q285.649,84.008 285.598,89.468 z M283.429,87.299 Q282.791,83.753 280.074,81.534 Q277.357,79.314 273.607,79.314 Q269.856,79.314 267.152,81.508 Q264.448,83.702 263.784,87.299 z" fill-opacity="0" stroke="#FFFFFF" stroke-width="0.5" stroke-dasharray="3,1,1,1"/>
      <path d="M314.989,66.43 L297.742,103.373 Q297.308,104.316 296.619,104.316 Q296.186,104.316 295.867,103.998 Q295.548,103.679 295.548,103.296 Q295.548,102.99 295.803,102.454 L313.024,65.512 Q313.305,64.925 313.56,64.746 Q313.815,64.568 314.172,64.568 Q314.606,64.568 314.925,64.887 Q315.244,65.205 315.244,65.588 Q315.244,65.869 314.989,66.43 z" fill-opacity="0" stroke="#FFFFFF" stroke-width="0.5" stroke-dasharray="3,1,1,1"/>
      <path d="M349.89,85.131 L326.724,98.04 Q326.163,98.347 325.882,98.347 Q325.449,98.347 325.13,98.028 Q324.811,97.709 324.811,97.275 Q324.811,96.637 325.678,96.152 L345.527,85.131 L325.704,74.109 Q324.836,73.625 324.836,72.987 Q324.836,72.553 325.155,72.234 Q325.474,71.915 325.908,71.915 Q326.189,71.915 326.75,72.221 z" fill-opacity="0" stroke="#FFFFFF" stroke-width="0.5" stroke-dasharray="3,1,1,1"/>
    </g>
    <path d="M53.433,84.962 C49.525,81.043 44.517,79.055 38.55,79.055 C32.76,79.055 27.843,81.091 23.935,85.106 C20.112,89.04 18.173,93.847 18.173,99.392 C18.173,104.948 20.034,109.783 23.703,113.762 C27.579,117.984 32.574,120.124 38.55,120.124 C38.829,120.124 39.108,120.122 39.387,120.118 L39.387,116.073 C39.108,116.079 38.829,116.083 38.55,116.083 C33.844,116.083 29.923,114.355 26.896,110.947 C24.067,107.738 22.633,103.851 22.633,99.392 C22.633,94.896 24.154,91.045 27.154,87.946 C30.199,84.79 34.033,83.189 38.55,83.189 C43.284,83.189 47.221,84.714 50.251,87.722 C53.098,90.542 54.541,93.999 54.541,97.998 C54.541,102.375 53.124,105.78 52.69,106.72 L47.381,106.723 L47.381,88.748 L42.477,88.748 L42.477,90.976 C41.86,90.503 41.116,90.094 40.256,89.756 C39.067,89.303 37.901,89.074 36.791,89.074 C33.83,89.074 31.347,90.25 29.41,92.571 C27.625,94.713 26.72,97.265 26.72,100.159 C26.72,102.847 27.572,105.302 29.25,107.455 C31.171,109.938 33.707,111.206 36.788,111.222 L36.852,111.222 C39.328,111.222 41.472,110.363 43.229,108.668 L43.93,110.718 L55.677,110.718 L56.992,108.001 C58.275,105.418 58.926,102.053 58.926,97.997 C58.926,93.005 57.078,88.619 53.433,84.962 z M40.679,104.683 C39.627,105.957 38.403,106.576 36.938,106.576 C35.005,106.576 33.513,105.799 32.377,104.201 C31.467,102.912 31.005,101.506 31.005,100.02 C31.005,98.363 31.534,96.88 32.578,95.612 C33.747,94.198 35.198,93.51 37.013,93.51 C38.135,93.51 39.242,94.013 40.3,95.006 C41.63,96.255 42.277,97.902 42.277,100.043 C42.277,101.839 41.74,103.4 40.679,104.683 z" fill-opacity="0" stroke="#FFFFFF" stroke-width="0.5" stroke-dasharray="3,1,1,1"/>
    <g>
      <path d="M424.354,112.586 C421.138,113.347 417.915,111.357 417.155,108.142 C416.394,104.927 418.384,101.704 421.599,100.943 C424.814,100.183 428.037,102.172 428.798,105.387 C429.558,108.602 427.569,111.825 424.354,112.586 z" fill-opacity="0" stroke="#FFFFFF" stroke-width="0.5" stroke-dasharray="3,1,1,1" id="path3812"/>
      <path d="M463.593,98.434 C461.089,87.85 454.847,79.43 447.3,75.136 L441.072,81.649 C447.662,84.515 453.274,91.431 455.39,100.375 C457.349,108.656 455.849,116.728 451.959,122.257 C464.45,118.396 465.983,108.533 463.593,98.434 z" fill-opacity="0" stroke="#FFFFFF" stroke-width="0.5" stroke-dasharray="3,1,1,1" id="path3814"/>
      <path d="M444.983,101.94 C443.558,95.919 440.017,90.953 435.34,87.644 L430.077,93.146 C433.476,95.669 436.04,99.36 437.092,103.807 C438.08,107.981 437.579,112.156 435.936,115.779 C445.52,113.658 446.369,107.797 444.983,101.94 z" fill-opacity="0" stroke="#FFFFFF" stroke-width="0.5" stroke-dasharray="3,1,1,1" id="path3822"/>
      <path d="M480.684,93.508 C477.393,79.597 469.051,68.375 458.461,61.792 L452.562,67.964 C461.43,72.582 468.966,82.607 471.98,95.347 C474.971,107.989 472.787,120.24 467.03,128.346 C481.578,121.023 483.956,107.336 480.684,93.508" fill-opacity="0" stroke="#FFFFFF" stroke-width="0.5" stroke-dasharray="3,1,1,1"/>
    </g>
    <g>
      <path d="M144.274,140.061 L144.274,133.524 L148.684,133.524 L148.684,134.295 L145.139,134.295 L145.139,136.32 L148.207,136.32 L148.207,137.091 L145.139,137.091 L145.139,140.061 z" fill-opacity="0" stroke="#FFFFFF" stroke-width="0.5" stroke-dasharray="3,1,1,1"/>
      <path d="M149.955,140.061 L149.955,133.524 L150.82,133.524 L150.82,140.061 z" fill-opacity="0" stroke="#FFFFFF" stroke-width="0.5" stroke-dasharray="3,1,1,1"/>
      <path d="M155.404,137.497 L155.404,136.73 L158.173,136.726 L158.173,139.152 Q157.535,139.66 156.857,139.916 Q156.18,140.173 155.466,140.173 Q154.503,140.173 153.716,139.76 Q152.929,139.348 152.528,138.567 Q152.126,137.787 152.126,136.824 Q152.126,135.87 152.525,135.042 Q152.924,134.215 153.674,133.814 Q154.423,133.413 155.399,133.413 Q156.108,133.413 156.681,133.642 Q157.254,133.872 157.58,134.282 Q157.905,134.692 158.075,135.352 L157.294,135.566 Q157.147,135.067 156.929,134.782 Q156.71,134.496 156.305,134.324 Q155.899,134.153 155.404,134.153 Q154.811,134.153 154.378,134.333 Q153.946,134.514 153.68,134.808 Q153.415,135.103 153.268,135.455 Q153.018,136.061 153.018,136.77 Q153.018,137.644 153.319,138.233 Q153.62,138.822 154.195,139.107 Q154.771,139.392 155.417,139.392 Q155.979,139.392 156.514,139.176 Q157.049,138.96 157.326,138.715 L157.326,137.497 z" fill-opacity="0" stroke="#FFFFFF" stroke-width="0.5" stroke-dasharray="3,1,1,1"/>
      <path d="M159.573,140.061 L159.573,139.147 L160.487,139.147 L160.487,140.061 z" fill-opacity="0" stroke="#FFFFFF" stroke-width="0.5" stroke-dasharray="3,1,1,1"/>
      <path d="M161.66,138.349 L162.503,138.278 Q162.596,138.893 162.938,139.203 Q163.279,139.513 163.76,139.513 Q164.34,139.513 164.741,139.076 Q165.143,138.639 165.143,137.916 Q165.143,137.23 164.757,136.833 Q164.371,136.436 163.747,136.436 Q163.359,136.436 163.047,136.612 Q162.735,136.788 162.556,137.069 L161.803,136.971 L162.436,133.613 L165.687,133.613 L165.687,134.38 L163.078,134.38 L162.726,136.137 Q163.314,135.727 163.961,135.727 Q164.817,135.727 165.406,136.32 Q165.994,136.913 165.994,137.845 Q165.994,138.732 165.477,139.379 Q164.848,140.173 163.76,140.173 Q162.868,140.173 162.304,139.673 Q161.74,139.174 161.66,138.349 z" fill-opacity="0" stroke="#FFFFFF" stroke-width="0.5" stroke-dasharray="3,1,1,1"/>
      <path d="M170.957,139.29 L170.957,140.061 L166.636,140.061 Q166.628,139.771 166.73,139.504 Q166.895,139.062 167.259,138.634 Q167.622,138.206 168.309,137.644 Q169.374,136.77 169.749,136.26 Q170.124,135.749 170.124,135.294 Q170.124,134.817 169.782,134.489 Q169.441,134.162 168.893,134.162 Q168.313,134.162 167.965,134.51 Q167.617,134.857 167.613,135.473 L166.788,135.388 Q166.873,134.465 167.426,133.981 Q167.979,133.497 168.911,133.497 Q169.852,133.497 170.4,134.019 Q170.949,134.541 170.949,135.312 Q170.949,135.705 170.788,136.084 Q170.627,136.463 170.255,136.882 Q169.883,137.301 169.018,138.032 Q168.295,138.639 168.09,138.855 Q167.885,139.071 167.751,139.29 z" fill-opacity="0" stroke="#FFFFFF" stroke-width="0.5" stroke-dasharray="3,1,1,1"/>
      <path d="M176.036,139.29 L176.036,140.061 L171.715,140.061 Q171.707,139.771 171.809,139.504 Q171.974,139.062 172.338,138.634 Q172.701,138.206 173.388,137.644 Q174.453,136.77 174.828,136.26 Q175.203,135.749 175.203,135.294 Q175.203,134.817 174.861,134.489 Q174.52,134.162 173.972,134.162 Q173.392,134.162 173.044,134.51 Q172.697,134.857 172.692,135.473 L171.867,135.388 Q171.952,134.465 172.505,133.981 Q173.058,133.497 173.99,133.497 Q174.931,133.497 175.479,134.019 Q176.028,134.541 176.028,135.312 Q176.028,135.705 175.867,136.084 Q175.706,136.463 175.334,136.882 Q174.962,137.301 174.097,138.032 Q173.374,138.639 173.169,138.855 Q172.964,139.071 172.83,139.29 z" fill-opacity="0" stroke="#FFFFFF" stroke-width="0.5" stroke-dasharray="3,1,1,1"/>
      <path d="M176.036,142.232 L144.274,142.232" fill-opacity="0" stroke="#FFFFFF" stroke-width="0.5" stroke-dasharray="3,1,1,1"/>
    </g>
    <path d="M342.33,107.802 C344.135,105.11 351.38,96.424 355.839,100.245 C357.587,101.743 356.93,108.852 360.301,108.271 C362.095,107.961 364.861,105.644 365.97,104.492 C368.898,101.449 370.934,99.195 373.378,96.339" fill-opacity="0" stroke="#FFFFFF" stroke-width="0.5" stroke-dasharray="3,1,1,1" stroke-linecap="round" stroke-linejoin="round" id="Layer_1"/>
    <path d="M18.173,142.966 L18.173,61.603 C18.173,28.55 53.562,3.85 85.201,3.85 L394.678,3.85 C426.319,3.85 461.707,28.55 461.707,61.603 L461.707,144.346" fill-opacity="0" stroke="#FFFFFF" stroke-width="1" stroke-dasharray="6,2,2,2"/>
    <path d="M50.195,105.937 L429.685,105.937 L429.685,145.289" fill-opacity="0" stroke="#FFFFFF" stroke-width="1" stroke-dasharray="6,2,2,2"/>
    <path d="M50.195,144.146 L50.195,105.937" fill-opacity="0" stroke="#FFFFFF" stroke-width="1" stroke-dasharray="6,2,2,2"/>
    <path d="M317.275,57.823 C317.275,60.365 313.86,62.425 309.65,62.425 L207.244,62.425 C203.033,62.425 199.619,60.365 199.619,57.823 L199.619,57.823 C199.619,55.281 203.035,53.221 207.244,53.221 L309.65,53.221 C313.862,53.221 317.275,55.281 317.275,57.823 L317.275,57.823 z" fill-opacity="0" stroke="#FFFFFF" stroke-width="1" stroke-dasharray="6,2,2,2"/>
    <path d="M162.955,57.823 L162.955,57.823 C162.955,61.289 160.094,64.099 156.566,64.099 C153.038,64.099 150.178,61.289 150.178,57.823 C150.178,54.357 153.038,51.548 156.566,51.548 C160.094,51.548 162.955,54.357 162.955,57.823 C162.955,57.823 162.955,57.823 162.955,57.823 z" fill-opacity="0" stroke="#FFFFFF" stroke-width="1" stroke-dasharray="6,2,2,2"/>
    <path d="M8.376,120.124 L199.352,120.124" fill-opacity="0" stroke="#FFFFFF" stroke-width="0.5" stroke-dasharray="3,1,1,1"/>
    <g opacity="0.4">>
      <path d="M343.304,-0.5 L343.304,-0.5 C343.484,0.124 343.355,0.773 343.25,1.398 C342.659,4.301 342.52,7.278 341.874,10.17 C341.735,12.797 341.217,15.398 341.363,18.033 C343.511,18.34 345.712,18.364 347.81,18.983 C352.644,20.321 357.476,22.199 361.298,25.542 C363.86,27.52 366.087,29.897 368.068,32.452 C369.22,33.907 370.062,35.568 371.066,37.121 C372.482,39.573 373.569,42.22 374.236,44.975 C374.904,47.067 374.924,49.28 375.274,51.433 C375.361,53.962 375.511,56.523 375.095,59.033 C375.043,60.603 374.639,62.129 374.193,63.627 C373.841,64.736 373.656,65.904 373.132,66.952 C372.891,67.507 372.503,68.096 372.688,68.724 C374.495,70.377 376.848,71.205 378.855,72.567 C381.784,74.226 384.909,75.635 388.227,76.287 C388.199,76.405 388.138,76.635 388.11,76.753 C387.359,77.603 386.453,78.309 385.478,78.886 C380.962,82.093 376.03,84.652 371.073,87.101 C369.044,88.012 367.139,89.184 365.058,89.978 C364.073,90.419 362.992,90.621 362.036,91.126 C361.318,91.778 360.759,92.596 359.979,93.185 C358.569,94.246 356.971,95.04 355.308,95.614 C354.414,95.792 353.503,95.875 352.598,95.964 C350.968,96.534 349.522,97.61 347.849,98.043 C346.118,99.002 344.157,99.413 342.32,100.1 C341.82,100.826 342.037,101.778 342.033,102.607 C343.855,102.887 345.764,103.066 347.371,104.053 C349.25,104.901 350.52,106.577 351.768,108.145 C353.081,110.146 353.807,112.536 353.81,114.932 C353.873,118.576 352.848,122.153 351.446,125.487 C350.428,127.674 349.15,129.727 348.039,131.867 C346.96,133.589 345.818,135.289 344.429,136.779 C343.42,137.766 342.874,139.108 341.924,140.143 C341.287,140.836 340.854,141.68 340.324,142.452 C339.397,143.753 338.669,145.176 337.911,146.578" fill-opacity="0" stroke="#FFFFFF" stroke-width="0.5" stroke-dasharray="3,1,1,1"/>
      <path d="M336.434,146.68 C337.138,145.16 337.898,143.663 338.873,142.297 C340.1,140.423 341.243,138.486 342.613,136.707 C343.65,135.213 344.894,133.878 345.927,132.38 C347.214,130.451 348.454,128.483 349.48,126.4 C350.27,124.726 350.791,122.945 351.283,121.166 C352.327,117.765 352.42,114.049 351.374,110.637 C350.731,108.741 349.291,107.273 347.723,106.095 C346.403,104.838 344.562,104.42 342.811,104.194 C341.72,104.131 340.604,104.094 339.539,104.373 C339.412,104.257 339.286,104.144 339.162,104.031 C339.262,103.585 339.356,103.142 339.465,102.7 C339.549,102.831 339.719,103.09 339.806,103.22 C339.963,102.953 340.119,102.683 340.254,102.403 C340.363,101.728 340.374,101.041 340.384,100.361 C338.834,100.339 337.294,100.654 335.746,100.487 C336.673,99.832 337.864,99.945 338.891,99.547 C339.325,99.406 339.769,99.291 340.224,99.232 C342.109,99.076 343.809,98.151 345.621,97.68 C347.075,97.029 348.556,96.423 349.954,95.655 L349.844,95.457 C350.685,95.404 351.436,95.051 352.161,94.656 L352.172,94.648 C353.032,94.662 353.859,94.453 354.66,94.163 C356.069,93.548 357.53,92.946 358.676,91.891 C359.992,90.828 361.368,89.68 361.981,88.047 L361.551,88.041 C361.644,87.663 361.721,87.281 361.798,86.899 C361.822,86.777 361.848,86.649 361.874,86.511 C361.922,86.264 362.077,85.449 362.104,85.313 C362.139,85.132 362.166,84.995 362.188,84.891 C362.206,84.805 362.219,84.749 362.217,84.754 C362.376,84.2 362.553,83.025 362.597,82.078 C362.628,81.399 362.6,80.798 362.484,80.264 C362.394,79.85 362.252,79.472 362.021,79.123 C361.658,78.575 361.111,78.168 360.419,78.029 L360.383,78.024 L360.444,77.95 C359.422,77.733 358.378,77.844 357.382,78.122 C357.664,78.585 357.533,78.372 357.774,78.762 C357.441,79.004 357.639,78.852 357.196,79.238 C356.629,78.894 356.895,79.033 356.408,78.805 C356.271,79.079 356.136,79.353 356.004,79.632 L355.855,79.522 C355.836,79.331 355.797,78.944 355.78,78.753 C355.258,78.985 354.93,79.502 354.439,79.775 C354.596,78.725 354.196,77.712 353.621,76.859 C353.204,76.335 352.771,75.82 352.249,75.397 C352.366,74.992 352.309,75.181 352.418,74.831 C352.522,74.511 352.643,74.163 352.796,73.746 C352.864,73.561 353.314,72.362 353.433,72.031 C353.73,71.205 353.901,70.634 353.991,70 C354.105,68.753 354.083,69.452 353.99,67.904 C355.154,67.553 356.455,67.28 357.108,66.154 C357.545,65.432 356.573,64.956 356.502,64.271 C356.286,62.682 356.623,61.085 356.591,59.494 C356.547,58.915 357.123,58.628 357.469,58.272 C357.426,57.274 357.395,56.271 357.213,55.286 L357.184,55.097 C357.041,54.314 356.893,53.534 356.702,52.764 C356.641,52.494 356.578,52.225 356.512,51.959 C356.134,51.729 355.723,51.557 355.336,51.348 C355.159,51.258 355.234,51.303 355.107,51.22 L354.943,50.672 C355.385,50.684 355.032,50.677 356.004,50.646 C355.884,50.046 355.686,49.469 355.495,48.891 C355.377,48.506 355.264,48.123 355.129,47.747 C354.768,46.895 354.471,46.001 353.979,45.216 C353.505,44.853 352.935,44.649 352.403,44.39 C352.633,43.962 352.861,43.529 353.009,43.063 C352.768,43.055 352.529,43.046 352.29,43.042 C352.109,43.622 351.931,44.205 351.781,44.794 C351.531,44.653 351.283,44.512 351.035,44.37 C351.228,44.057 351.422,43.744 351.618,43.433 C351.237,42.881 350.961,42.261 350.857,41.596 C350.811,41.307 350.785,41.017 350.783,40.728 C350.802,40.395 350.831,40.065 350.859,39.737 C350.572,39.55 350.285,39.367 350.006,39.171 C349.667,38.834 349.378,38.454 349.061,38.097 C348.845,37.88 348.623,37.671 348.399,37.466 C347.808,37.027 347.18,36.64 346.525,36.303 C346.456,36.334 346.312,36.394 346.242,36.423 C346.149,36.464 345.966,36.542 345.873,36.581 C345.814,35.966 345.453,35.477 344.944,35.148 C344.104,34.466 344.535,34.778 343.654,34.207 C342.899,33.451 342.041,33.087 341.005,32.889 L341.01,32.832 C340.489,32.65 339.93,32.504 339.402,32.746 L339.201,32.769 L339.026,32.781 C338.214,32.71 337.61,32.16 336.927,31.778 C336.34,32.052 335.701,32.293 335.266,32.796 C335.096,33.106 335.142,32.972 335.084,33.18 C330.063,34.521 325.231,37.362 322.105,41.593 C321.827,41.767 321.973,41.665 321.673,41.907 C321.601,41.961 321.458,42.07 321.386,42.124 C321.177,42.431 320.999,42.755 320.832,43.085 C320.787,43.177 320.809,43.131 320.765,43.222 C320.405,42.929 319.944,42.804 319.51,42.672 C318.602,42.453 317.954,41.82 317.344,41.159 C317.212,40.948 317.065,40.748 316.925,40.544 C316.964,40.459 317.004,40.374 317.044,40.289 C316.822,39.889 316.57,39.504 316.304,39.13 C316.069,39.006 316.187,39.045 315.955,39.002 C315.431,38.002 315.046,36.941 314.676,35.877 C314.519,35.45 314.285,35.061 314.011,34.7 C314.445,33.743 314.291,34.185 314.519,33.391 C314.304,32.35 314.306,30.954 313.149,30.482 C313.134,30.884 313.258,31.321 313.09,31.704 C312.758,32 312.314,32.115 311.914,32.287 C311.615,32.776 311.782,32.513 311.408,33.074 C310.807,32.977 311.087,33.005 310.569,32.977 C309.587,33.096 310.002,33.004 309.312,33.195 C308.184,33.569 307.357,34.373 306.834,35.418 C306.194,35.622 305.682,36.039 305.199,36.486 C304.619,36.244 304.111,36.15 303.625,36.597 C302.686,37.382 301.871,38.292 301.078,39.22 C300.266,39.766 299.622,40.498 299.049,41.281 C299.003,41.139 299.089,41.005 299.163,40.891 C300.009,39.141 301.311,37.675 302.679,36.314 C303.479,35.566 303.919,34.535 304.649,33.731 C305.23,33.074 305.871,32.476 306.489,31.856 C306.604,31.908 306.835,32.011 306.95,32.063 C306.415,32.561 305.967,33.137 305.562,33.742 C306.843,32.922 307.996,31.887 309.405,31.278 C310.303,30.891 311.166,30.43 311.988,29.901 C312.314,29.699 312.634,29.488 312.956,29.277 C313.292,29.031 313.658,28.824 314.045,28.668 C314.027,28.904 314.031,28.733 314.13,29.173 C314.414,29.874 314.227,29.497 314.737,30.283 L314.621,30.31 C314.654,30.573 314.689,30.834 314.739,31.095 C314.956,31.554 315.202,32 315.445,32.448 C315.543,32.391 315.743,32.278 315.843,32.222 C315.78,32.75 315.722,33.281 315.759,33.811 C316.08,34.158 315.935,34.004 316.192,34.276 C316.63,36.087 317.133,38.261 318.862,39.283 C319.513,39.593 320.256,39.606 320.902,39.272 C320.971,39.42 320.922,39.339 321.069,39.502 C321.38,39.047 321.259,39.257 321.452,38.884 C321.758,38.598 321.622,38.746 321.865,38.446 C322.052,38.184 321.969,38.311 322.119,38.066 C322.476,38.399 322.74,38.811 322.995,39.221 C323.232,38.825 323.513,38.456 323.843,38.13 L323.969,38.005 C324.591,37.81 325.307,37.714 325.711,37.142 C326.298,36.523 327.083,36.155 327.873,35.868 C327.944,35.862 328.088,35.849 328.16,35.842 C328.136,35.766 328.088,35.616 328.064,35.54 C327.49,35.444 326.907,35.368 326.353,35.181 L326.233,35.086 L326.555,34.833 C326.852,34.586 326.747,34.677 326.874,34.567 C327.411,34.41 327.134,34.487 327.706,34.339 C327.796,34.316 327.83,34.308 328.043,34.255 C328.685,34.091 329.333,33.94 329.956,33.712 C329.267,34.692 329.544,34.244 329.092,35.033 C329.649,34.757 330.225,34.513 330.747,34.176 C331.167,33.903 331.36,33.42 331.654,33.033 C333.048,32.489 332.307,32.764 333.882,32.217 L333.909,32.254 L334.053,32.163 C335.773,31.669 337.532,31.143 339.338,31.123 C339.784,31.204 339.536,31.157 340.083,31.268 C340.403,31.702 340.952,31.81 341.446,31.906 L341.588,31.62 C342.337,31.787 343.013,32.118 343.672,32.497 L343.645,32.504 C343.506,32.545 343.386,32.633 343.257,32.698 C343.998,33.276 344.849,33.686 345.67,34.135 C346.339,34.817 346.039,34.508 346.57,35.061 C346.646,35.14 347.664,36.213 348.011,36.574 C348.645,37.237 349.231,37.837 349.855,38.461 C349.926,38.532 349.998,38.603 350.073,38.674 C350.421,39.005 350.802,39.333 351.304,39.744 C351.49,39.896 352.322,40.565 352.542,40.745 C353.323,41.354 354.022,42.049 354.67,42.795 L353.84,42.77 C354.253,44.079 355.316,45.057 355.614,46.417 C355.669,46.525 355.777,46.743 355.832,46.851 C356.249,47.415 355.925,48.4 356.695,48.667 L357.008,48.717 C357.273,49.757 357.649,50.765 358.026,51.769 C358.099,51.96 358.172,52.15 358.245,52.341 C357.725,51.699 357.986,51.966 357.489,51.516 C357.776,52.953 357.937,54.484 358.72,55.756 C359.184,55.412 359.038,55.555 359.206,55.386 C359.3,55.889 359.278,55.676 359.301,56.019 L359.289,56.032 C359.033,56.645 358.83,57.278 358.613,57.904 C359.118,57.896 358.87,57.899 359.356,57.894 C359.338,58.789 359.358,58.312 359.288,59.324 C359.247,59.83 359.204,60.263 359.109,61.163 C359.062,61.604 359.082,61.413 359.049,61.735 C358.766,62.455 358.894,62.107 358.663,62.779 C358.661,63.124 358.753,63.458 358.869,63.78 C358.826,64.275 358.822,64.772 358.818,65.269 L358.823,65.372 L358.535,65.765 C358.091,66.385 358.052,67.187 357.661,67.831 C357.374,68.166 356.995,68.407 356.715,68.748 C356.669,68.855 356.58,69.066 356.534,69.172 C356.341,69.67 356.128,70.16 355.906,70.644 L356,70.689 C355.551,71.608 355.282,72.596 355.388,73.624 C355.402,73.766 355.45,73.902 355.481,74.042 C355.263,74.302 355.404,74.124 355.09,74.6 C354.477,75.539 354.094,76.655 354.188,77.79 C354.39,77.601 354.592,77.411 354.773,77.203 C355.032,77.24 355.295,77.279 355.556,77.318 C355.803,76.731 355.994,76.124 356.202,75.523 C356.26,75.602 356.206,75.529 356.388,75.725 C356.425,75.901 356.39,75.736 356.488,76.22 C356.454,76.546 356.876,76.961 357.158,76.65 L357.229,76.454 C357.771,76.796 357.519,76.653 357.978,76.897 C358.529,77.174 359.091,77.389 359.988,77.69 C360.115,77.733 360.573,77.885 360.549,77.877 C360.768,77.95 360.933,78.005 361.091,78.06 C363.341,78.841 364.036,79.442 364.036,80.707 L364.036,84.477 L364.614,84.477 L364.567,85.189 C365.272,85.3 365.991,85.025 366.461,84.477 L367.37,84.477 C366.974,84.892 366.519,85.226 366.021,85.505 C365.434,85.861 364.693,86.007 364.271,86.588 C364.865,86.618 365.46,86.548 366.03,86.375 C366.104,86.394 366.25,86.435 366.321,86.455 C366.315,86.655 366.304,86.855 366.293,87.057 C365.454,87.242 364.586,87.318 363.782,87.631 C363.529,87.977 363.556,88.423 363.488,88.825 C364.04,88.729 364.58,88.553 365.091,88.314 C369.237,86.327 373.402,84.361 377.418,82.113 C378.816,81.178 380.329,80.432 381.725,79.49 C382.821,78.751 383.937,78.038 385.087,77.379 C385.102,77.274 385.137,77.068 385.155,76.963 C383.737,76.276 382.173,75.944 380.803,75.161 C378.849,74.095 376.924,72.975 375.006,71.851 C373.669,71.012 372.19,70.32 371.138,69.109 C371.74,67.589 372.227,66.03 372.788,64.497 C373.467,62.753 373.715,60.885 373.989,59.046 C374.15,56.221 374.08,53.386 373.995,50.559 C373.717,48.319 373.388,46.069 372.69,43.916 C371.621,40.693 369.809,37.797 368.013,34.942 C366.898,33.509 366.028,31.882 364.736,30.595 C363.521,29.554 362.434,28.371 361.124,27.44 C357.967,24.531 354.077,22.452 349.976,21.219 C348.293,20.73 346.545,20.529 344.836,20.162 C343.189,19.792 341.509,19.549 339.819,19.577 C339.739,17.283 340.21,15.022 340.287,12.736 C340.332,11.792 340.619,10.881 340.698,9.942 L340.697,9.942 L340.697,9.942 C340.839,7.969 341.265,6.03 341.567,4.08 C341.668,3.429 341.74,2.775 341.826,2.123 L341.826,2.122 C340.724,2.579 339.81,3.364 338.782,3.951 C335.929,5.837 333.106,7.776 330.432,9.912 C328.344,11.442 326.418,13.18 324.33,14.713 C321.636,16.931 318.825,19.033 316.394,21.549 C315.063,22.787 313.867,24.174 313.004,25.781 C310.859,27.118 308.831,28.662 306.98,30.386 C306.082,31.154 305.217,31.965 304.458,32.874 C303.397,34.263 302.02,35.394 301.072,36.875 C300.326,37.971 299.757,39.169 299.115,40.324 C296.982,43.962 295.991,48.145 295.471,52.294 C295.134,54.09 295.014,55.917 295.016,57.743 C295.023,59.402 294.96,61.07 295.177,62.721 C295.547,65.658 295.597,68.677 296.56,71.506 C296.789,72.199 296.67,71.822 296.91,72.638 C296.613,72.866 296.442,73.194 296.299,73.531 C296.241,73.739 296.255,73.664 296.24,73.751 C295.073,74.175 294.09,74.937 293.477,76.018 C292.596,77.57 292.838,79.431 292.935,81.136 C293.342,83.356 294.44,85.385 295.573,87.312 L295.573,87.312 C296.97,89.497 298.685,91.448 300.522,93.27 C301.798,94.346 303.201,95.264 304.604,96.166 C306.974,97.667 309.646,98.621 312.36,99.284 C313.745,99.591 313.01,99.437 314.566,99.739 L314.484,100.163 C314.407,100.753 314.443,101.137 314.586,102.089 C314.596,102.155 314.602,102.193 314.607,102.233 C314.656,102.565 314.676,102.754 314.676,102.887 C314.696,103.073 314.67,103.265 314.708,103.449 C311.126,103.473 312.923,103.45 309.316,103.52 C306.452,103.888 303.582,104.381 300.872,105.41 C297.555,106.585 294.596,108.474 291.785,110.554 C285.629,112.836 279.264,115.882 274.901,120.949 C274.606,121.312 274.362,121.712 274.165,122.135 C269.45,125.041 268.501,130.025 269.492,135.177 C270.696,140.511 274.404,145.042 279.057,146.206 C279.558,146.315 280.096,146.277 280.542,146.01 C282.354,146.435 281.263,146.198 283.826,146.665" fill-opacity="0" stroke="#FFFFFF" stroke-width="0.5" stroke-dasharray="3,1,1,1"/>
      <path d="M278.346,147.424 L277.534,147.168 C275.944,146.781 274.672,145.696 273.337,144.813 C272.145,143.833 270.91,142.782 270.277,141.336 C269.634,140.008 268.892,138.697 268.59,137.235 C267.725,132.956 268.914,128.483 271.095,124.773 C272.08,122.812 273.65,121.249 275.203,119.731 C277.157,117.935 279.399,116.489 281.635,115.071 C282.718,114.356 283.94,113.905 285.081,113.305 C285.986,112.831 287.069,112.659 287.804,111.903 C289.093,110.648 290.443,109.456 291.894,108.391 C293.42,107.319 295.062,106.43 296.725,105.595 C299.578,104.227 302.697,103.548 305.776,102.905 C307.939,102.576 310.125,102.394 312.316,102.444 C312.449,102.046 312.588,101.648 312.66,101.237 C312.514,100.693 311.834,100.68 311.401,100.489 C308.476,99.891 305.819,98.482 303.19,97.129 C300.807,95.503 298.522,93.676 296.745,91.38 C295.999,90.402 295.151,89.495 294.523,88.434 L294.141,87.858 C293.366,86.448 293.672,87.067 293.185,86.024 C292.446,84.435 291.748,82.778 291.587,81.017 C291.572,79.503 291.444,77.933 292.005,76.492 C292.587,74.778 293.886,73.356 295.56,72.658 C295.575,71.869 295.286,71.127 295.134,70.364 C294.599,67.857 294.227,65.308 294.175,62.742 C293.757,60.011 293.977,57.232 293.997,54.479 C294.466,51.15 294.747,47.758 295.834,44.555 C296.362,42.287 297.404,40.161 298.765,38.28 C299.415,37.458 299.97,36.564 300.561,35.701 C302.164,33.705 303.864,31.787 305.728,30.03 C307.672,28.021 310.059,26.525 312.242,24.805 C313.932,22.473 315.767,20.208 318.003,18.377 C319.692,16.857 321.506,15.48 323.3,14.084 C325.026,12.543 326.779,11.027 328.634,9.638 C329.545,8.798 330.569,8.102 331.571,7.378 C334.124,5.295 337.018,3.699 339.773,1.907 C341.059,1.277 342.179,0.373 343.304,-0.5 L343.304,-0.5 L343.304,-0.5 L343.304,-0.5 L343.304,-0.5 L343.304,-0.5 L343.304,-0.5 L343.304,-0.5 L343.304,-0.5 L343.304,-0.5 L343.304,-0.5 L343.304,-0.5 L343.304,-0.5 L343.304,-0.5 L343.304,-0.5 L343.304,-0.5 L343.304,-0.5" fill-opacity="0" stroke="#FFFFFF" stroke-width="0.5" stroke-dasharray="3,1,1,1"/>
      <path d="M347.54,98.041 L347.54,98.041 L346.934,98.111 L347.54,98.041" fill-opacity="0" stroke="#FFFFFF" stroke-width="0.5" stroke-dasharray="3,1,1,1"/>
      <path d="M295.076,87.838 C295.036,87.88 295.056,87.859 295.017,87.901 L295.076,87.838" fill-opacity="0" stroke="#FFFFFF" stroke-width="0.5" stroke-dasharray="3,1,1,1"/>
      <path d="M301.285,108.317 L301.285,108.317 L301.285,108.317 C301.536,108.785 301.41,108.551 301.664,109.019 C301.318,109.948 300.859,110.876 300.903,111.896 C300.937,112.642 300.776,113.518 301.368,114.097 C301.457,113.277 301.248,112.475 301.207,111.664 C301.314,110.552 301.972,109.622 302.47,108.658 C302.605,108.641 302.873,108.604 303.005,108.585 C302.714,108.937 302.466,109.324 302.24,109.722 C302.186,109.83 302.079,110.048 302.027,110.154 C302.273,110.331 302.523,110.509 302.77,110.683 C302.692,110.681 302.531,110.672 302.451,110.668 C302.214,110.657 301.975,110.648 301.738,110.642 C301.594,111.318 301.466,112.038 301.655,112.72 C301.864,113.123 302.349,113.186 302.736,113.323 C303.101,113.434 303.462,113.564 303.825,113.69 C303.558,113.71 303.29,113.738 303.025,113.775 C303.094,114.538 303.982,114.547 304.547,114.747 C304.975,114.858 305.406,114.949 305.836,115.058 C308.024,115.625 310.083,116.565 312.164,117.428 C312.5,117.03 312.382,117.22 312.557,116.884 C313.513,117.349 314.275,118.104 314.998,118.867 C315.297,119.19 316.369,120.415 316.269,120.303 C316.822,120.925 317.237,121.347 317.688,121.713 C318.385,122.278 319.107,122.645 319.929,122.762 C320.496,122.844 320.927,122.711 321.312,122.486 C321.471,122.393 321.598,122.296 321.721,122.185 C321.851,122.069 321.969,121.944 322.106,121.786 C322.199,121.679 322.3,121.557 322.433,121.393 C322.509,121.299 322.814,120.922 322.799,120.941 L322.883,120.837 C323.946,120.441 324.852,119.727 325.661,118.949 C326.341,118.287 326.895,117.638 327.878,116.408 C327.909,116.369 327.887,116.396 327.943,116.326 C328.502,116.052 328.206,116.176 328.834,115.963 C329.93,115.65 332.493,114.646 334.557,113.696 C335.83,113.11 336.916,112.549 337.749,112.03 C338.323,111.661 337.998,111.88 338.713,111.358 C338.597,111.499 338.673,111.406 338.488,111.64 C338.375,111.922 338.282,112.212 338.19,112.503 C338.077,112.842 337.969,113.184 337.834,113.518 C337.792,113.61 337.705,113.792 337.662,113.884 C337.325,114.158 336.966,114.401 336.612,114.649 L336.781,114.712 C336.279,115.001 335.779,115.347 335.196,115.445 C334.222,115.562 333.274,115.225 332.304,115.208 C332.063,116.615 331.367,118.046 330.11,118.798 C329.125,119.376 327.96,119.176 326.877,119.189 C326.366,120.281 325.735,121.507 324.524,121.94 C323.858,122.073 323.178,122.051 322.502,122.062 C322.099,122.558 321.717,123.075 321.462,123.667 C322.432,123.673 323.467,124.245 324.378,123.704 C325.304,123.238 326.205,122.714 327.177,122.347 C327.718,122.16 328.14,121.77 328.551,121.388 C328.727,121.779 328.864,122.186 328.977,122.601 C328.27,122.71 327.485,122.471 326.855,122.888 C325.939,123.451 324.961,123.921 324.117,124.595 C323.395,124.473 322.676,124.328 321.954,124.206 L321.732,124.234 C321.634,124.252 321.438,124.284 321.34,124.299 C321.177,124.334 320.856,124.404 320.695,124.436 L320.531,124.488 C320.438,124.519 320.255,124.58 320.162,124.61 C320.049,124.652 319.82,124.732 319.705,124.773 C319.346,124.993 319.001,125.228 318.642,125.45 C318.501,125.53 318.357,125.613 318.214,125.691 C317.937,125.748 317.631,126.174 317.987,126.35 L318.105,126.443 C317.498,126.574 316.883,126.674 316.283,126.837 C315.965,127.067 315.665,127.318 315.363,127.568 C315.132,127.761 314.902,127.952 314.687,128.163 C314.471,128.446 314.289,128.751 314.126,129.068 C313.949,129.39 313.769,129.709 313.606,130.04 C313.262,129.594 312.919,129.148 312.582,128.698 C312.634,128.546 312.684,128.396 312.736,128.246 C312.919,127.92 313.112,127.602 313.306,127.287 C313.108,126.95 312.919,126.611 312.738,126.269 C313.025,125.965 313.299,125.654 313.582,125.35 C313.758,125.5 313.936,125.652 314.112,125.806 C314.582,125.613 315.028,125.367 315.43,125.056 C315.182,124.93 314.937,124.804 314.689,124.682 C315.208,124.697 315.689,124.506 316.135,124.256 C316.578,124.584 316.961,124.982 317.357,125.365 C317.963,125.213 318.538,124.93 318.916,124.419 C318.168,124.112 317.363,123.897 316.711,123.399 C316.046,122.875 315.889,121.955 315.254,121.405 C314.167,120.401 312.814,119.77 311.586,118.97 C309.981,117.965 308.241,117.219 306.498,116.495 C304.212,115.762 301.833,115.378 299.476,114.954 C298.543,114.769 297.584,114.81 296.641,114.847 C296.806,115.086 296.976,115.33 297.152,115.569 C297.119,115.678 297.056,115.899 297.023,116.01 C296.521,115.632 296.001,115.254 295.393,115.069 C295.164,115.16 294.949,115.284 294.74,115.417 C294.475,115.586 294.212,115.76 293.942,115.926 C293.883,116.213 293.833,116.502 293.781,116.793 C293.666,116.643 293.549,116.495 293.433,116.35 L293.316,116.199 C293.222,115.982 293.135,115.765 293.048,115.549 C293.503,115.399 293.953,115.243 294.397,115.069 C294.068,114.914 293.723,114.712 293.349,114.814 C292.111,115.06 290.896,115.456 289.769,116.023 C288.904,116.482 288.11,117.056 287.267,117.55 C286.449,117.896 285.714,118.441 285.244,119.202 C284.272,120.268 283.492,121.488 282.828,122.764 C282.661,123.077 282.648,123.44 282.594,123.786 C283.198,123.58 283.783,123.325 284.353,123.036 C284.383,122.592 284.411,122.149 284.475,121.712 C284.594,121.66 284.833,121.555 284.951,121.503 C285.192,121.603 285.433,121.703 285.675,121.805 C285.699,121.703 285.747,121.497 285.771,121.394 C285.927,121.555 286.084,121.72 286.236,121.888 C286.595,122.521 286.81,123.234 287.256,123.819 C288.53,125.195 289.663,126.704 291.039,127.985 C293.266,130.11 295.486,132.256 297.95,134.108 C299.139,135.037 300.237,136.096 301.575,136.818 C302.868,137.509 303.893,138.599 305.184,139.29 C307.248,140.414 309.244,141.665 311.375,142.658 C312.958,143.289 314.602,143.774 316.28,144.07 C318.129,144.446 320.018,144.744 321.908,144.576 C323.208,144.357 324.535,144.233 325.789,143.796 C327.518,143.219 329.253,142.598 330.808,141.63 C331.961,140.908 333.176,140.286 334.274,139.482 C335.557,138.564 336.836,137.638 338.173,136.8 C339.171,136.194 339.763,134.904 341.004,134.752 C340.948,136.259 339.08,136.733 338.649,138.07 C338.486,139.477 338.277,140.906 337.658,142.195 C337.59,142.115 337.451,141.956 337.381,141.876 C337.61,140.806 337.908,139.745 337.986,138.649 C337.668,138.764 337.349,138.879 337.042,139.021 C336.688,139.316 336.357,139.645 336.053,139.993 C335.79,140.095 335.527,140.201 335.274,140.323 C334.926,140.619 334.589,140.93 334.202,141.173 C334.063,141.243 333.924,141.317 333.787,141.393 C333.02,141.81 332.315,142.328 331.558,142.765 C331.006,143.078 330.43,143.361 329.938,143.774 C329.793,143.889 329.64,143.998 329.482,144.098 C328.129,144.446 326.805,144.918 325.522,145.472 C325.494,145.55 325.437,145.705 325.407,145.783" fill-opacity="0" stroke="#FFFFFF" stroke-width="0.5" stroke-dasharray="3,1,1,1"/>
      <path d="M316.645,145.202 C314.629,144.775 312.582,144.549 310.535,144.345 C310.494,143.647 310.178,143.111 309.625,142.7 C308.281,141.85 306.903,140.987 305.4,140.444 C304.724,139.977 305.047,140.143 304.461,139.896 L304.438,139.867 C303.983,139.297 303.429,138.935 302.585,138.51 C302.546,138.49 301.778,138.118 301.676,138.059 C301.316,137.854 299.959,137.112 299.689,136.959 C298.309,136.182 297.466,135.587 297.019,135.051 C296.339,134.235 294.082,132.183 291.587,130.075 C288.642,127.587 286.623,126.041 285.648,125.716 C284.712,125.466 285.277,125.594 283.939,125.395 L283.354,125.404 C282.302,125.55 282.748,125.454 282.008,125.643 C281.14,125.896 280.408,126.276 279.39,126.923 C279.312,126.972 279.231,127.024 279.135,127.086 C279.08,127.121 278.889,127.244 278.889,127.244 C278.337,127.615 277.764,127.943 277.153,128.204 C277.28,127.155 277.228,127.632 277.315,126.773 C277.321,126.718 277.321,126.718 277.326,126.663 C277.386,125.946 277.485,125.236 277.662,124.538 C277.816,124.266 277.734,124.44 277.858,123.996 C278.011,123.666 277.921,123.821 278.127,123.53 C280.737,120.267 287.54,116.321 293.258,114.414 C293.655,114.285 293.983,114.036 294.235,113.709 C294.543,113.829 294.642,113.854 294.925,113.686 C295.169,113.216 295.279,112.694 295.421,112.192 C295.556,112.509 295.684,112.833 295.812,113.16 C296.104,112.899 296.393,112.64 296.682,112.379 C296.425,112.212 296.167,112.044 295.912,111.874 C296.46,111.727 297.034,111.653 297.547,111.398 C297.845,111.15 298.137,110.896 298.422,110.633 C298.504,110.359 298.574,110.081 298.63,109.8 C298.676,109.58 298.722,109.361 298.765,109.141 C298.83,109.185 298.961,109.267 299.024,109.309 C299.207,109.428 299.387,109.55 299.567,109.674 C299.805,109.835 300.044,109.996 300.283,110.161 C299.95,111.281 299.589,112.594 300.081,113.701 C300.181,113.753 300.383,113.858 300.483,113.91 C300.576,112.705 300.313,111.444 300.779,110.294 C300.998,109.728 301.292,109.161 301.183,108.535 C301.216,108.461 301.251,108.389 301.285,108.317 L301.285,108.317" fill-opacity="0" stroke="#FFFFFF" stroke-width="0.5" stroke-dasharray="3,1,1,1"/>
      <path d="M276.27,132.561 L276.18,132.717 L276.202,132.564 L276.27,132.561 z" fill-opacity="0" stroke="#FFFFFF" stroke-width="0.5" stroke-dasharray="3,1,1,1"/>
      <path d="M343.305,-0.5 L343.305,-0.5 L343.305,-0.5 L343.305,-0.5 L343.305,-0.5 L343.305,-0.5 z" fill-opacity="0" stroke="#FFFFFF" stroke-width="0.5" stroke-dasharray="3,1,1,1"/>
      <path d="M358.072,84.406 L358.047,84.528 C358.02,84.673 357.865,85.487 357.818,85.724 C357.793,85.856 357.769,85.977 357.746,86.092 L357.722,86.212 C357.384,86.159 357.548,86.185 357.23,86.132 C357.221,86.131 357.221,86.131 357.211,86.129 C356.88,86.074 357.036,86.099 356.744,86.053 L357.034,85.726 C357.383,85.289 357.719,84.841 358.072,84.406 z" fill-opacity="0" stroke="#FFFFFF" stroke-width="0.5" stroke-dasharray="3,1,1,1"/>
      <path d="M356.51,53.984 C356.682,54.024 356.767,54.126 356.878,54.251 C356.578,54.399 356.275,54.536 355.973,54.68 C355.78,54.736 355.557,54.807 355.446,54.994 C355.491,54.364 355.486,54.647 355.479,54.144 C355.753,53.981 356.069,53.95 356.379,53.927 L356.51,53.984 z" fill-opacity="0" stroke="#FFFFFF" stroke-width="0.5" stroke-dasharray="3,1,1,1"/>
      <path d="M312.76,75.78 C314.004,76.026 313.478,75.89 314.349,76.144 C314.761,76.236 314.618,76.246 314.768,76.235 C315.26,76.511 315.059,76.416 315.436,76.579 C315.75,76.683 316.052,76.747 316.355,76.777 L316.461,76.785 L316.475,76.856 C316.067,77.639 316.283,77.232 315.826,78.075 C315.728,77.807 315.63,77.54 315.532,77.272 C315.124,77.19 314.717,77.1 314.31,77.022 C313.969,76.953 313.63,76.881 313.295,76.803 C313.221,76.748 313.075,76.637 313.001,76.583 C312.603,76.331 312.016,76.178 311.681,76.616 C311.17,77.285 310.949,78.218 311.188,79.036 C311.366,79.212 311.551,79.386 311.738,79.558 C312.358,79.834 313.045,79.951 313.721,79.845 C313.839,79.895 314.073,79.995 314.193,80.045 C314.202,80.427 314.206,80.814 314.234,81.199 C313.921,81.06 313.597,80.941 313.249,80.943 C313.528,81.68 313.845,82.402 314.145,83.13 C314.147,83.182 314.147,83.291 314.147,83.343 C313.647,83.483 313.151,83.63 312.66,83.791 C312.695,83.948 312.766,84.261 312.801,84.418 C313.062,84.463 313.325,84.515 313.588,84.557 C313.821,84.587 314.054,84.611 314.289,84.624 C314.482,84.624 314.678,84.626 314.871,84.626 C315.148,85.437 316.015,85.274 316.685,85.192 C317.028,85.407 317.374,85.62 317.72,85.833 C318.027,85.781 318.337,85.735 318.646,85.694 C319.168,85.977 319.742,85.937 320.262,85.674 C319.953,85.513 319.644,85.359 319.333,85.207 C320.231,85.1 321.134,85.183 322.032,85.237 C322.945,85.239 323.648,84.583 324.122,83.865 C324.185,83.813 324.311,83.704 324.374,83.65 C324.454,83.583 324.617,83.448 324.698,83.38 C324.815,83.452 325.05,83.593 325.167,83.663 C325.663,84.03 326.281,84.098 326.881,84.117 C326.648,84.235 326.418,84.354 326.187,84.478 C326.459,84.85 326.737,85.22 327.018,85.59 C326.837,85.972 326.65,86.353 326.479,86.742 C326.296,87.379 326.346,88.047 326.309,88.701 C326.233,89.019 326.131,89.33 326.039,89.645 C326.163,89.715 326.413,89.854 326.537,89.921 C326.285,90.002 326.031,90.08 325.779,90.154 C325.62,90.617 325.47,91.084 325.374,91.567 C325.352,91.841 325.346,92.117 325.341,92.393 C325.237,92.53 325.133,92.665 325.026,92.8 C324.661,93.211 324.259,93.587 323.865,93.97 C323.719,94.111 323.576,94.25 323.43,94.392 C322.797,94.938 322.149,95.699 321.24,95.681 C320.525,95.707 320.021,95.135 319.416,94.857 C319.017,94.721 318.594,94.688 318.178,94.64 C318.118,94.521 318.145,94.573 318.098,94.483 L318.141,94.305 C318.371,94.347 318.602,94.384 318.833,94.422 C318.59,93.566 318.744,94.02 318.346,93.071 L318.348,93.031 C318.363,91.868 318.014,90.641 317.395,89.423 C316.273,87.216 314.349,85.198 312.611,84.619 L311.996,84.46 L312.008,84.424 C312.188,83.665 312.66,83.037 313.199,82.493 C313.017,82.163 312.83,81.834 312.64,81.51 L312.588,81.52 C312.339,80.884 311.854,80.438 311.207,80.239 C310.904,80.191 311.076,80.211 310.689,80.192 L310.277,79.745 C309.88,79.318 309.613,78.79 309.49,78.217 C309.645,78.076 309.561,78.163 309.729,77.944 C309.829,77.8 309.883,77.697 309.945,77.561 C309.973,77.499 310.057,77.3 310.057,77.299 C310.138,77.113 310.214,76.96 310.31,76.806 C310.567,76.393 310.89,76.097 311.324,75.929 C311.791,75.781 311.499,75.856 312.214,75.761 L312.76,75.78 z" fill-opacity="0" stroke="#FFFFFF" stroke-width="0.5" stroke-dasharray="3,1,1,1"/>
    </g>
    <path d="M7.457,79.055 L436.355,79.055" fill-opacity="0" stroke="#FFFFFF" stroke-width="0.5" stroke-dasharray="3,1,1,1"/>
    <path d="M151.194,39.527 L342.169,39.527" fill-opacity="0" stroke="#FFFFFF" stroke-width="0.5" stroke-dasharray="3,1,1,1"/>
    <g>
      <path d="M95.243,57.368 C81.022,57.368 69.493,45.839 69.493,31.618 C69.493,17.397 81.022,5.868 95.243,5.868 C109.464,5.868 120.993,17.397 120.993,31.618 C120.993,45.839 109.464,57.368 95.243,57.368 z" fill-opacity="0" stroke="#FFFFFF" stroke-width="0.5" stroke-dasharray="3,1,1,1"/>
      <path d="M94.63,21.808 C92.937,21.808 91.564,20.436 91.564,18.743 C91.564,17.05 92.937,15.678 94.63,15.678 C96.323,15.678 97.695,17.05 97.695,18.743 C97.695,20.436 96.323,21.808 94.63,21.808 z" fill-opacity="0" stroke="#FFFFFF" stroke-width="0.5" stroke-dasharray="3,1,1,1"/>
      <path d="M92.668,45.66 L90.093,47.681 L100.393,47.681 L97.818,45.66 L97.818,25.487 L90.093,25.487 L92.668,28.062" fill-opacity="0" stroke="#FFFFFF" stroke-width="0.5" stroke-dasharray="3,1,1,1"/>
    </g>
    <g>
      <g>
        <path d="M71.607,121.475 L86.369,121.475 C91.97,121.475 96.51,126.09 96.51,131.782 L96.51,131.782 C96.51,137.475 91.97,142.089 86.369,142.089 L71.607,142.089 C66.006,142.089 61.466,137.475 61.466,131.782 L61.466,131.782 C61.466,126.09 66.006,121.475 71.607,121.475 z" fill-opacity="0" stroke="#FFFFFF" stroke-width="0.5" stroke-dasharray="3,1,1,1"/>
      </g>
      <path d="M86.035,140.845 C81.006,140.845 76.929,136.768 76.929,131.74 C76.929,126.711 81.006,122.634 86.035,122.634 C91.063,122.634 95.14,126.711 95.14,131.74 C95.14,136.768 91.063,140.845 86.035,140.845 z" fill-opacity="0" stroke="#FFFFFF" stroke-width="0.5" stroke-dasharray="3,1,1,1"/>
    </g>
  </g>
  <g id="logotype_shadow" opacity="0.4">
    <path d="M106.501,58.175 L106.501,82.655 L112.765,82.655 L112.765,30.095 L106.501,30.095 L106.501,52.847 L77.773,52.847 L77.773,30.095 L71.581,30.095 L71.581,82.655 L77.773,82.655 L77.773,58.175 z" fill="#000000"/>
    <path d="M129.397,30.095 L123.493,30.095 L123.493,37.007 L129.397,37.007 z M129.397,44.063 L123.493,44.063 L123.493,145.989 L129.397,145.989 z" fill="#000000"/>
    <path d="M153.805,78.263 C161.725,78.263 165.397,71.567 165.397,63.287 C165.397,55.007 161.941,48.311 153.733,48.311 C145.885,48.311 143.005,56.087 143.005,63.071 C143.005,70.703 145.813,78.263 153.805,78.263 z M153.445,83.519 C143.005,83.519 136.957,74.951 136.957,62.927 C136.957,51.983 143.437,43.127 153.229,43.127 C158.341,43.127 163.381,45.575 165.397,49.679 L165.397,30.239 L171.301,29.591 L171.301,82.655 L166.045,82.655 L165.325,76.607 C163.093,80.567 158.773,83.519 153.445,83.519 z" fill="#000000"/>
    <path d="M194.413,78.263 C202.333,78.263 206.005,71.567 206.005,63.287 C206.005,55.007 202.549,48.311 194.341,48.311 C186.493,48.311 183.613,56.087 183.613,63.071 C183.613,70.703 186.421,78.263 194.413,78.263 z M194.053,83.519 C183.613,83.519 177.565,74.951 177.565,62.927 C177.565,51.983 184.045,43.127 193.837,43.127 C198.949,43.127 203.989,45.575 206.005,49.679 L206.005,30.239 L211.909,29.591 L211.909,82.655 L206.653,82.655 L205.933,76.607 C203.701,80.567 199.381,83.519 194.053,83.519 z" fill="#000000"/>
    <path d="M236.461,83.519 C225.445,83.519 218.749,75.671 218.749,63.287 C218.749,51.767 225.661,43.415 235.741,43.127 C245.317,43.127 251.293,50.399 251.293,61.775 C251.293,62.351 251.221,63.791 251.221,64.439 L224.797,64.439 C224.797,73.151 229.909,78.479 236.677,78.479 C242.149,78.479 246.181,76.463 248.917,74.591 L250.717,78.911 C247.549,81.647 242.653,83.519 236.461,83.519 z M225.013,60.335 L245.605,60.335 C245.605,52.127 241.501,47.951 235.741,47.951 C229.909,47.951 225.661,52.775 225.013,60.335 z" fill="#000000"/>
    <path d="M277.357,43.127 C272.029,43.127 266.629,45.647 263.605,49.751 L263.101,44.063 L257.989,44.063 L258.133,53.423 L258.133,82.655 L264.037,82.655 L264.037,56.303 C264.973,52.847 269.581,48.167 276.061,48.167 C283.189,48.167 283.621,53.279 283.621,63.287 L283.621,82.655 L289.525,82.655 L289.525,59.543 C289.525,48.743 285.853,43.127 277.357,43.127 z" fill="#000000"/>
    <path d="M159.087,106.44 C153.759,106.44 148.359,108.96 145.335,113.064 L144.831,107.376 L139.719,107.376 L139.863,116.736 L139.863,145.968 L145.767,145.968 L145.767,119.616 C146.703,116.16 151.311,111.48 157.791,111.48 C164.919,111.48 165.351,116.592 165.351,126.6 L165.351,145.968 L171.255,145.968 L171.255,122.856 C171.255,112.056 167.583,106.44 159.087,106.44 z" fill="#000000"/>
    <path d="M194.439,141.576 C202.359,141.576 206.031,134.88 206.031,126.6 C206.031,118.32 202.575,111.624 194.367,111.624 C186.519,111.624 183.639,119.4 183.639,126.384 C183.639,134.016 186.447,141.576 194.439,141.576 z M194.079,146.832 C183.639,146.832 177.591,138.264 177.591,126.24 C177.591,115.296 184.071,106.44 193.863,106.44 C198.975,106.44 204.015,108.888 206.031,112.992 L206.031,93.552 L211.935,92.904 L211.935,145.968 L206.679,145.968 L205.959,139.92 C203.727,143.88 199.407,146.832 194.079,146.832 z" fill="#000000"/>
    <path d="M219.855,133.08 C219.855,143.16 227.271,146.832 235.407,146.832 C243.543,146.832 250.815,143.232 250.815,133.08 L250.815,107.376 L244.911,107.376 L244.911,133.152 C244.911,139.992 240.879,142.008 235.407,142.008 C229.863,142.008 225.759,140.064 225.759,133.152 L225.759,107.376 L219.855,107.376 z" fill="#000000"/>
    <path d="M284.655,135.6 C284.439,142.872 279.255,146.832 271.911,146.832 C266.007,146.832 260.823,144.96 258.519,143.232 L260.031,138.696 C261.471,139.632 265.719,141.936 270.975,141.936 L271.551,141.936 C275.943,141.936 278.751,139.776 279.111,135.744 L279.111,135.384 C279.111,132.936 277.599,130.632 273.279,129.408 L268.167,127.968 C260.463,125.808 258.231,121.992 258.159,117.312 C258.159,111.912 262.407,106.512 271.047,106.44 C276.015,106.44 279.759,107.448 282.711,108.96 L281.343,113.208 C279.255,112.344 275.727,111.12 271.479,111.12 C267.231,111.12 264.063,113.352 264.063,117.312 C264.063,119.688 265.431,121.56 269.607,122.64 L274.935,124.08 C281.199,125.736 284.655,129.048 284.655,135.456 z" fill="#000000"/>
    <path d="M300.135,111.48 L310.359,111.48 L310.359,107.376 L300.135,107.376 L300.135,94.56 L295.743,94.92 L294.231,107.376 L288.831,107.376 L288.327,111.48 L294.231,111.48 L294.231,130.344 C294.231,142.08 294.951,146.688 304.311,146.688 C305.535,146.688 306.615,146.544 311.007,146.184 L310.503,141.432 C307.767,141.648 306.327,141.792 305.679,141.792 C300.999,141.792 300.135,140.28 300.135,133.08 z" fill="#000000"/>
    <path d="M316.119,145.968 L316.119,116.232 C316.119,113.208 316.047,110.328 316.047,107.376 L321.015,107.376 L321.447,114.072 C324.183,109.104 328.215,107.376 332.751,107.376 L333.831,107.376 L334.263,112.776 L332.823,112.776 C325.623,112.776 322.023,117.6 322.023,123.36 L322.023,145.968 z" fill="#000000"/>
    <path d="M346.287,93.408 L340.383,93.408 L340.383,100.32 L346.287,100.32 z M346.287,107.376 L340.383,107.376 L340.383,145.968 L346.287,145.968 z" fill="#000000"/>
    <path d="M371.559,146.832 C360.543,146.832 353.847,138.984 353.847,126.6 C353.847,115.08 360.759,106.728 370.839,106.44 C380.415,106.44 386.391,113.712 386.391,125.088 C386.391,125.664 386.319,127.104 386.319,127.752 L359.895,127.752 C359.895,136.464 365.007,141.792 371.775,141.792 C377.247,141.792 381.279,139.776 384.015,137.904 L385.815,142.224 C382.647,144.96 377.751,146.832 371.559,146.832 z M360.111,123.648 L380.703,123.648 C380.703,115.44 376.599,111.264 370.839,111.264 C365.007,111.264 360.759,116.088 360.111,123.648 z" fill="#000000"/>
    <path d="M419.223,135.6 C419.007,142.872 413.823,146.832 406.479,146.832 C400.575,146.832 395.391,144.96 393.087,143.232 L394.599,138.696 C396.039,139.632 400.287,141.936 405.543,141.936 L406.119,141.936 C410.511,141.936 413.319,139.776 413.679,135.744 L413.679,135.384 C413.679,132.936 412.167,130.632 407.847,129.408 L402.735,127.968 C395.031,125.808 392.799,121.992 392.727,117.312 C392.727,111.912 396.975,106.512 405.615,106.44 C410.583,106.44 414.327,107.448 417.279,108.96 L415.911,113.208 C413.823,112.344 410.295,111.12 406.047,111.12 C401.799,111.12 398.631,113.352 398.631,117.312 C398.631,119.688 399.999,121.56 404.175,122.64 L409.503,124.08 C415.767,125.736 419.223,129.048 419.223,135.456 z" fill="#000000"/>
  </g>
  <g id="logotype_white">
    <path d="M102.044,54.075 L102.044,78.555 L108.308,78.555 L108.308,25.995 L102.044,25.995 L102.044,48.747 L73.316,48.747 L73.316,25.995 L67.124,25.995 L67.124,78.555 L73.316,78.555 L73.316,54.075 z" fill="#FFFFFF"/>
    <path d="M124.94,25.995 L119.036,25.995 L119.036,32.907 L124.94,32.907 z M124.94,39.963 L119.036,39.963 L119.036,141.889 L124.94,141.889 z" fill="#FFFFFF"/>
    <path d="M149.348,74.163 C157.268,74.163 160.94,67.467 160.94,59.187 C160.94,50.907 157.484,44.211 149.276,44.211 C141.428,44.211 138.548,51.987 138.548,58.971 C138.548,66.603 141.356,74.163 149.348,74.163 z M148.988,79.419 C138.548,79.419 132.5,70.851 132.5,58.827 C132.5,47.883 138.98,39.027 148.772,39.027 C153.884,39.027 158.924,41.475 160.94,45.579 L160.94,26.139 L166.844,25.491 L166.844,78.555 L161.588,78.555 L160.868,72.507 C158.636,76.467 154.316,79.419 148.988,79.419 z" fill="#FFFFFF"/>
    <path d="M189.956,74.163 C197.876,74.163 201.548,67.467 201.548,59.187 C201.548,50.907 198.092,44.211 189.884,44.211 C182.036,44.211 179.156,51.987 179.156,58.971 C179.156,66.603 181.964,74.163 189.956,74.163 z M189.596,79.419 C179.156,79.419 173.108,70.851 173.108,58.827 C173.108,47.883 179.588,39.027 189.38,39.027 C194.492,39.027 199.532,41.475 201.548,45.579 L201.548,26.139 L207.452,25.491 L207.452,78.555 L202.196,78.555 L201.476,72.507 C199.244,76.467 194.924,79.419 189.596,79.419 z" fill="#FFFFFF"/>
    <path d="M232.004,79.419 C220.988,79.419 214.292,71.571 214.292,59.187 C214.292,47.667 221.204,39.315 231.284,39.027 C240.86,39.027 246.836,46.299 246.836,57.675 C246.836,58.251 246.764,59.691 246.764,60.339 L220.34,60.339 C220.34,69.051 225.452,74.379 232.22,74.379 C237.692,74.379 241.724,72.363 244.46,70.491 L246.26,74.811 C243.092,77.547 238.196,79.419 232.004,79.419 z M220.556,56.235 L241.148,56.235 C241.148,48.027 237.044,43.851 231.284,43.851 C225.452,43.851 221.204,48.675 220.556,56.235 z" fill="#FFFFFF"/>
    <path d="M272.9,39.027 C267.572,39.027 262.172,41.547 259.148,45.651 L258.644,39.963 L253.532,39.963 L253.676,49.323 L253.676,78.555 L259.58,78.555 L259.58,52.203 C260.516,48.747 265.124,44.067 271.604,44.067 C278.732,44.067 279.164,49.179 279.164,59.187 L279.164,78.555 L285.068,78.555 L285.068,55.443 C285.068,44.643 281.396,39.027 272.9,39.027 z" fill="#FFFFFF"/>
    <path d="M154.63,102.34 C149.302,102.34 143.902,104.86 140.878,108.964 L140.374,103.276 L135.262,103.276 L135.406,112.636 L135.406,141.868 L141.31,141.868 L141.31,115.516 C142.246,112.06 146.854,107.38 153.334,107.38 C160.462,107.38 160.894,112.492 160.894,122.5 L160.894,141.868 L166.798,141.868 L166.798,118.756 C166.798,107.956 163.126,102.34 154.63,102.34 z" fill="#FFFFFF"/>
    <path d="M189.982,137.476 C197.902,137.476 201.574,130.78 201.574,122.5 C201.574,114.22 198.118,107.524 189.91,107.524 C182.062,107.524 179.182,115.3 179.182,122.284 C179.182,129.916 181.99,137.476 189.982,137.476 z M189.622,142.732 C179.182,142.732 173.134,134.164 173.134,122.14 C173.134,111.196 179.614,102.34 189.406,102.34 C194.518,102.34 199.558,104.788 201.574,108.892 L201.574,89.452 L207.478,88.804 L207.478,141.868 L202.222,141.868 L201.502,135.82 C199.27,139.78 194.95,142.732 189.622,142.732 z" fill="#FFFFFF"/>
    <path d="M215.398,128.98 C215.398,139.06 222.814,142.732 230.95,142.732 C239.086,142.732 246.358,139.132 246.358,128.98 L246.358,103.276 L240.454,103.276 L240.454,129.052 C240.454,135.892 236.422,137.908 230.95,137.908 C225.406,137.908 221.302,135.964 221.302,129.052 L221.302,103.276 L215.398,103.276 z" fill="#FFFFFF"/>
    <path d="M280.198,131.5 C279.982,138.772 274.798,142.732 267.454,142.732 C261.55,142.732 256.366,140.86 254.062,139.132 L255.574,134.596 C257.014,135.532 261.262,137.836 266.518,137.836 L267.094,137.836 C271.486,137.836 274.294,135.676 274.654,131.644 L274.654,131.284 C274.654,128.836 273.142,126.532 268.822,125.308 L263.71,123.868 C256.006,121.708 253.774,117.892 253.702,113.212 C253.702,107.812 257.95,102.412 266.59,102.34 C271.558,102.34 275.302,103.348 278.254,104.86 L276.886,109.108 C274.798,108.244 271.27,107.02 267.022,107.02 C262.774,107.02 259.606,109.252 259.606,113.212 C259.606,115.588 260.974,117.46 265.15,118.54 L270.478,119.98 C276.742,121.636 280.198,124.948 280.198,131.356 z" fill="#FFFFFF"/>
    <path d="M295.678,107.38 L305.902,107.38 L305.902,103.276 L295.678,103.276 L295.678,90.46 L291.286,90.82 L289.774,103.276 L284.374,103.276 L283.87,107.38 L289.774,107.38 L289.774,126.244 C289.774,137.98 290.494,142.588 299.854,142.588 C301.078,142.588 302.158,142.444 306.55,142.084 L306.046,137.332 C303.31,137.548 301.87,137.692 301.222,137.692 C296.542,137.692 295.678,136.18 295.678,128.98 z" fill="#FFFFFF"/>
    <path d="M311.662,141.868 L311.662,112.132 C311.662,109.108 311.59,106.228 311.59,103.276 L316.558,103.276 L316.99,109.972 C319.726,105.004 323.758,103.276 328.294,103.276 L329.374,103.276 L329.806,108.676 L328.366,108.676 C321.166,108.676 317.566,113.5 317.566,119.26 L317.566,141.868 z" fill="#FFFFFF"/>
    <path d="M341.83,89.308 L335.926,89.308 L335.926,96.22 L341.83,96.22 z M341.83,103.276 L335.926,103.276 L335.926,141.868 L341.83,141.868 z" fill="#FFFFFF"/>
    <path d="M367.102,142.732 C356.086,142.732 349.39,134.884 349.39,122.5 C349.39,110.98 356.302,102.628 366.382,102.34 C375.958,102.34 381.934,109.612 381.934,120.988 C381.934,121.564 381.862,123.004 381.862,123.652 L355.438,123.652 C355.438,132.364 360.55,137.692 367.318,137.692 C372.79,137.692 376.822,135.676 379.558,133.804 L381.358,138.124 C378.19,140.86 373.294,142.732 367.102,142.732 z M355.654,119.548 L376.246,119.548 C376.246,111.34 372.142,107.164 366.382,107.164 C360.55,107.164 356.302,111.988 355.654,119.548 z" fill="#FFFFFF"/>
    <path d="M414.766,131.5 C414.55,138.772 409.366,142.732 402.022,142.732 C396.118,142.732 390.934,140.86 388.63,139.132 L390.142,134.596 C391.582,135.532 395.83,137.836 401.086,137.836 L401.662,137.836 C406.054,137.836 408.862,135.676 409.222,131.644 L409.222,131.284 C409.222,128.836 407.71,126.532 403.39,125.308 L398.278,123.868 C390.574,121.708 388.342,117.892 388.27,113.212 C388.27,107.812 392.518,102.412 401.158,102.34 C406.126,102.34 409.87,103.348 412.822,104.86 L411.454,109.108 C409.366,108.244 405.838,107.02 401.59,107.02 C397.342,107.02 394.174,109.252 394.174,113.212 C394.174,115.588 395.542,117.46 399.718,118.54 L405.046,119.98 C411.31,121.636 414.766,124.948 414.766,131.356 z" fill="#FFFFFF"/>
  </g>
  <g id="logo_white_shadow" opacity="0.4">
    <path d="M395.039,11.041 C421.128,11.041 445.498,23.818 461.904,46.098 L464.154,49.15 L461.801,52.125 C445.462,72.798 421.792,84.655 396.86,84.655 C370.773,84.655 346.403,71.88 329.996,49.6 L327.747,46.547 L330.098,43.572 C346.437,22.898 370.108,11.041 395.039,11.041 z M395.005,66.208 C390.198,64.871 392.227,65.61 388.842,64.216 L388.843,64.217 L388.842,64.216 L384.373,69.865 C388.064,72.377 392.562,73.096 396.911,73.317 C410.689,73.317 421.896,62.107 421.899,48.331 C421.807,41.943 419.496,35.755 414.951,31.209 L410.772,36.492 C413.886,39.634 415.056,44.053 415.272,48.331 C415.272,58.27 407.215,66.327 397.276,66.327 L395.005,66.208 z M399.869,30.524 C405.607,32.265 403.294,31.166 407.032,33.301 L411.197,27.974 C407.08,24.734 402.034,23.602 396.914,23.343 C390.989,23.343 385.544,25.419 381.257,28.876 L377.608,24.165 L377.091,23.385 C363.202,27.137 350.432,35.185 340.362,46.762 C350.189,58.899 362.789,67.463 376.677,71.695 C370.127,66.018 365.961,57.66 365.961,48.331 C365.961,45.271 366.413,42.319 367.244,39.525 L372.971,41.187 C372.293,43.452 371.924,45.848 371.924,48.331 C372.284,56.928 374.637,61.215 380.568,67.146 L385.039,61.428 L385.038,61.428 L385.038,61.428 C381.2,58.033 379.531,53.34 379.278,48.331 C379.278,46.559 379.539,44.847 380.017,43.23 L380.018,43.233 L380.018,43.23 L395.711,47.779 L395.805,47.659 L385.672,34.579 C388.805,31.933 392.852,30.334 397.276,30.334 L399.869,30.524 z M416.567,24.443 C423.458,30.124 427.86,38.723 427.86,48.331 C427.86,57.602 423.743,65.912 417.262,71.589 C430.2,67.581 442.066,59.825 451.539,48.934 C442.03,37.191 429.922,28.811 416.567,24.443 z" fill="#000000"/>
    <path d="M399.844,60.644 L396.649,59.292" fill="#FFFFFF"/>
    <path d="M395.951,58.869 L395.95,58.868" fill="#FFFFFF"/>
    <path d="M389.044,52.077 L388.683,51.542" fill="#FFFFFF"/>
    <path d="M387.935,49.968 L387.032,47.833" fill="#FFFFFF"/>
    <path d="M386.541,37.469 L386.898,36.102" fill="#FFFFFF"/>
    <path d="M424.903,36.168 L425.014,36.708" fill="#FFFFFF"/>
    <path d="M423.466,32.624 L423.916,33.686" fill="#FFFFFF"/>
    <path d="M421.493,29.591 L421.504,29.608" fill="#FFFFFF"/>
    <path d="M420.223,28.182 L420.25,28.209" fill="#FFFFFF"/>
    <path d="M393.475,26.327 L393.474,26.329" fill="#FFFFFF"/>
    <path d="M415.761,24.612 L417.243,25.614" fill="#FFFFFF"/>
    <path d="M412.738,23.229 L414.437,23.948" fill="#FFFFFF"/>
    <path d="M408.852,22.228 L409.083,22.275" fill="#FFFFFF"/>
    <path d="M405.904,21.936 L405.908,21.936" fill="#FFFFFF"/>
  </g>
  <g id="logo_white">
    <path d="M392.57,3.642 C418.478,3.642 442.68,16.331 458.972,38.457 L461.207,41.488 L458.87,44.443 C442.645,64.973 419.138,76.748 394.378,76.748 C368.471,76.748 344.269,64.061 327.975,41.935 L325.743,38.903 L328.077,35.949 C344.303,15.417 367.81,3.642 392.57,3.642 z M392.536,58.429 C387.762,57.1 389.777,57.834 386.415,56.45 L386.417,56.451 L386.415,56.45 L381.977,62.06 C385.643,64.555 390.109,65.269 394.428,65.488 C408.111,65.488 419.241,54.356 419.244,40.675 C419.152,34.331 416.857,28.186 412.344,23.671 L408.194,28.918 C411.286,32.038 412.448,36.426 412.662,40.675 C412.662,50.545 404.661,58.547 394.791,58.547 L392.536,58.429 z M397.366,22.991 C403.064,24.72 400.767,23.628 404.479,25.749 L408.616,20.458 C404.527,17.24 399.516,16.117 394.431,15.859 C388.548,15.859 383.14,17.921 378.883,21.354 L375.259,16.676 L374.745,15.901 C360.952,19.627 348.271,27.62 338.27,39.116 C348.03,51.169 360.542,59.675 374.334,63.877 C367.83,58.239 363.692,49.939 363.692,40.675 C363.692,37.636 364.142,34.704 364.967,31.93 L370.654,33.58 C369.981,35.829 369.614,38.209 369.614,40.675 C369.971,49.212 372.309,53.47 378.198,59.359 L382.638,53.681 L382.638,53.681 L382.638,53.682 C378.826,50.31 377.169,45.649 376.918,40.675 C376.918,38.915 377.176,37.215 377.651,35.609 L377.652,35.612 L377.653,35.609 L393.237,40.126 L393.33,40.007 L383.267,27.018 C386.378,24.39 390.398,22.802 394.791,22.802 L397.366,22.991 z M413.949,16.952 C420.792,22.593 425.163,31.133 425.163,40.675 C425.163,49.881 421.075,58.134 414.639,63.772 C427.488,59.792 439.272,52.089 448.679,41.274 C439.236,29.611 427.211,21.289 413.949,16.952 z" fill="#FFFFFF"/>
    <path d="M400.844,57.644 L397.649,56.292" fill="#FFFFFF"/>
    <path d="M396.951,55.869 L396.95,55.868" fill="#FFFFFF"/>
    <path d="M390.044,49.077 L389.683,48.542" fill="#FFFFFF"/>
    <path d="M388.935,46.968 L388.032,44.833" fill="#FFFFFF"/>
    <path d="M387.541,34.469 L387.898,33.102" fill="#FFFFFF"/>
    <path d="M425.903,33.168 L426.014,33.708" fill="#FFFFFF"/>
    <path d="M424.466,29.624 L424.916,30.686" fill="#FFFFFF"/>
    <path d="M422.493,26.591 L422.504,26.608" fill="#FFFFFF"/>
    <path d="M421.223,25.182 L421.25,25.209" fill="#FFFFFF"/>
    <path d="M394.475,23.327 L394.474,23.329" fill="#FFFFFF"/>
    <path d="M416.761,21.612 L418.243,22.614" fill="#FFFFFF"/>
    <path d="M413.738,20.229 L415.437,20.948" fill="#FFFFFF"/>
    <path d="M409.852,19.227 L410.083,19.275" fill="#FFFFFF"/>
    <path d="M406.904,18.936 L406.908,18.936" fill="#FFFFFF"/>
  </g>
</svg>
