<?xml version="1.0" encoding="UTF-8"?>
<!DOCTYPE svg PUBLIC "-//W3C//DTD SVG 1.1//EN" "http://www.w3.org/Graphics/SVG/1.1/DTD/svg11.dtd">
<svg version="1.1" xmlns="http://www.w3.org/2000/svg" xmlns:xlink="http://www.w3.org/1999/xlink" x="0" y="0" width="100" height="100" viewBox="0, 0, 100, 100">
  <g id="linkedin">
    <title>Hidden Industries - linkedin</title>
    <path class="linkedin123" d="M100,60.807 L100,97.778 L78.567,97.778 L78.567,63.283 C78.567,54.618 75.467,48.704 67.709,48.704 C61.786,48.704 58.262,52.69 56.711,56.545 C56.146,57.923 56,59.842 56,61.771 L56,97.778 L34.56,97.778 C34.56,97.778 34.849,39.356 34.56,33.303 L55.998,33.303 L55.998,42.442 C55.955,42.51 55.898,42.584 55.857,42.65 L55.998,42.65 L55.998,42.442 C58.847,38.055 63.933,31.788 75.319,31.788 C89.425,31.788 100,41.003 100,60.807 z M12.132,2.222 C4.798,2.222 -0,7.033 -0,13.36 C-0,19.549 4.659,24.506 11.848,24.506 L11.991,24.506 C19.468,24.506 24.118,19.55 24.118,13.36 C23.977,7.033 19.468,2.222 12.132,2.222 z M1.273,97.778 L22.706,97.778 L22.706,33.303 L1.273,33.303 L1.273,97.778 z" fill="#000000" id="LinkedIn"/>
  </g>
</svg>
